<svg xmlns="http://www.w3.org/2000/svg" version="1.1" xmlns:xlink="http://www.w3.org/1999/xlink" width="1000" height="1000"><g clip-path="url(#SvgjsClipPath1241)"><rect width="1000" height="1000" fill="#000000"></rect><g transform="matrix(1.6537429715923706,0,0,1.6537429715923706,50,50)"><svg xmlns="http://www.w3.org/2000/svg" version="1.1" xmlns:xlink="http://www.w3.org/1999/xlink" width="544.22" height="544.22"><svg id="Layer_1" xmlns="http://www.w3.org/2000/svg" viewBox="0 0 544.22 544.22"><defs><style>.cls-1{fill:#fff;}</style><clipPath id="SvgjsClipPath1241"><rect width="1000" height="1000" x="0" y="0" rx="500" ry="500"></rect></clipPath></defs><path class="cls-1" d="M198.69,130.53c-4.35,1.19-8.93,1.8-13.99,1.28-.5-.05-.96.26-1.1.74-3.08,10.61-7.15,16.86-13.01,22.76-.27.27-.63.37-.99.27-.37-.1-.63-.36-.73-.72-1.16-4.22-2.67-6.35-4.35-7.14-1.54-.73-2.96.08-3.81,1.37-1.33,2.01-.92,4.8-.22,6.94.51,1.57,1.25,2.89,2.06,3.63,1.99,1.81,4.37,1.46,4.37,1.46l1.91-.21c.38-.04.73.11.96.43l1.12,1.58c2.98,4.22,8.15,8.96,13.41,11.38,3.38,1.55,6.67,2.06,8.97.51,1.84-1.25,2.96-4.58,3.92-7.47,1.56-4.7,2.18-6.76,5.94-8.97.48-.28.65-.89.38-1.38-1.05-1.93-1.61-4.01-1.9-5.46-.66-3.29-.34-6.51-.12-9.85.26-3.87.5-7.33-1.67-10.7-.25-.38-.7-.56-1.14-.44M212.52,97.06h0s-.18-.03-.18-.03c-.01,0-.02,0-.03,0-3.59-.55-7.13-.3-10.37.83-3.74,1.31-7.12,3.87-9.75,7.83-3.38,5.1-4.87,10.7-6.11,16.4-.07.31,0,.6.19.85.19.25.46.39.77.4,7.58.3,14.32-2.62,21.07-5.54,5.84-2.53,11.69-5.07,18.37-5.97,3.28-.45,6.85-.67,10.67-.28.45.05.87-.2,1.05-.62.18-.42.07-.89-.28-1.19-6.19-5.32-13.31-9.53-22.59-12.06-.94-.26-1.88-.46-2.82-.61ZM167.65,179.25l3.86-1.09c.38-.11.65-.39.73-.78.08-.38-.05-.76-.35-1.01-.74-.62-1.46-1.25-2.15-1.9-.24-.23-.55-.32-.88-.26-.33.06-.59.25-.74.55-.53,1.05-1.08,2.04-1.63,2.97-.22.37-.19.81.07,1.16.26.34.68.48,1.1.36ZM173.43,96.94c-6.05,3.4-9.16,9.3-10.57,15.7-2.09,9.51-.6,19.85.86,25.57.11.43.46.73.89.77,1.21.12,2.4.44,3.52.96.6.28,1.18.62,1.74,1.02.25.18.53.23.82.17.3-.06.53-.23.68-.5,3.21-5.66,4.47-11.66,5.73-17.64,1.56-7.43,3.11-14.81,7.92-22.05,1.02-1.53,2.12-2.92,3.29-4.16.29-.31.37-.75.19-1.14-.18-.39-.55-.62-.98-.6-4.96.21-9.56.82-13.82,1.78-.1.02-.19.06-.28.11ZM159.66,170.59c-8.93-6.67-16.04-15.52-20.87-24.36-1.29-2.37-2.42-4.74-3.38-7.09-.18-.44-.63-.7-1.1-.63-.48.07-.83.44-.87.92-.36,3.76-.26,7.54.28,11.24,1.75,11.87,8.12,22.9,18.86,29.77.41.26.93.21,1.28-.14,1.76-1.74,3.98-4.43,6.1-8.41.24-.45.12-1-.29-1.31ZM140.21,119.45c-.89,5.47,1.36,13.96,6.12,22.68,1.09,2,2.31,3.99,3.66,5.96.23.34.61.5,1.02.44.4-.07.71-.34.83-.74.52-1.83,1.4-3.54,2.72-4.99.24-.27.51-.53.77-.77.29-.26.41-.64.31-1.02-1.77-6.8-3.6-19.08-1.17-30.17.35-1.59.78-3.15,1.31-4.68.15-.42.01-.88-.34-1.15-.36-.28-.83-.29-1.2-.04-1.47.98-2.85,2.01-4.16,3.1-3.93,3.26-7.16,6.99-9.7,11.02-.08.12-.12.24-.14.38ZM135.05,214.56c0-.67,0-1.32,0-1.94,0-.32-.13-.59-.38-.79-.25-.2-.54-.27-.85-.21l-3.46.69c-.47.09-.8.47-.83.95-.03.47.25.89.7,1.04,1.16.39,2.3.8,3.41,1.22.32.13.66.09.95-.11.29-.2.45-.49.45-.84ZM208.51,377.42c-5.85,2.82-11.82,6.24-16.52,9.09-.35.21-.53.57-.49.98.04.4.28.73.66.87l3.37,1.27c7.62,2.88,15.46,5.85,21.8,7.71.41.12.82,0,1.09-.34.27-.33.31-.76.11-1.13-3.09-5.85-5.97-11.83-8.63-17.93-.12-.27-.31-.45-.59-.56-.27-.1-.54-.09-.81.04ZM85.23,211.19c-2.54-7.95-2.3-14.87-1.46-19.74.05-.32-.03-.61-.24-.85-.21-.24-.49-.36-.81-.35-5.25.15-10.31.47-15,.99-5.77.65-10.43,1.92-13.43,4.21-2.54,1.95-3.9,4.91-3.71,9.26,0,0,0,.01,0,.02l.04.52s0,.02,0,.03c.28,2.83,1.66,5.47,4.05,7.36,2.58,2.04,6.36,3.25,11.28,3.02.45-.02.9-.05,1.33-.09.02,0,.03,0,.05,0h.06s.04-.01.07-.02c1.3-.1,7.94-1.32,16.97-3.04.3-.06.54-.22.69-.49.15-.26.19-.55.1-.84ZM148.47,199l-.47-5.7c-.04-.52-.47-.93-.99-.95-4.59-.15-10.02-.45-16.05-.79-11.22-.62-24.48-1.36-37.35-1.43-.48,0-.89.31-1,.78-.96,3.8-1.78,10.62,1.22,18.91.17.48.66.76,1.16.66,19.12-3.71,42.79-8.42,52.65-10.39.52-.1.87-.57.83-1.09ZM156.55,192.19l.57,7.03c.04.51.44.91.95.94.99.07,2.09.08,3.23.03,2.88-.11,5.95-.55,8.14-.93,2.41-.42,4.36-.08,6.13.78h.02c.79.38,1.48.85,2.13,1.38.21.17.46.25.73.23,1.36-.11,2.06-.22,2.38-.45.57-.42,1.47-1.66,3.05-3.84.83-1.15,1.83-2.53,3.15-4.28.38-.51.55-.92.54-1.25-.01-.62-.51-1.39-1.26-2.17-1.08-1.13-2.56-2.12-4.09-2.9-2.04-1.03-3.73-1.66-4.13-1.54l-20.8,5.89c-.48.13-.79.58-.75,1.08ZM267.32,217.59c-3.92-.25-7.54-.57-10.9-.87-14.01-1.25-22.91-2.04-28.65,4.99h0c-.43.59-.86,1.26-1.28,1.99-.18.32-.18.67-.01.99.17.32.47.51.83.54,8.82.68,25.42,1.84,48.64,2.98.45.02.85-.24,1.01-.66.16-.42.04-.89-.32-1.17-3.09-2.48-5.78-5.36-8.64-8.46-.19-.2-.42-.31-.69-.33ZM414.77,185.5l11.85-.02-11.85.02ZM401.32,208.18l-.02-7.5c0-.56-.44-1.01-1-1.03-12.25-.39-38.14-2.55-57.4-4.03-.3-.02-.57.07-.79.28-.22.21-.33.47-.32.77l.28,14.74c.01.55.45.99,1,1.01,19.97.68,32.69-2.7,57.24-3.2.56-.01,1.01-.47,1.01-1.03ZM457.3,187.94v.63c0,.57.46,1.03,1.03,1.03h1.39c.49,0,.9-.33,1.01-.81.1-.48-.14-.95-.58-1.15-.47-.21-.93-.42-1.39-.63-.33-.15-.68-.12-.98.07-.3.2-.47.5-.47.87ZM206.3,240.06c1.64.66,3.33,1.29,5.06,1.9.31.11.61.07.89-.1.27-.17.44-.43.48-.75.5-4.09,1.21-7.73,2.08-10.93.12-.46-.07-.93-.49-1.17-.42-.23-.93-.15-1.25.19-2.99,3.18-5.36,6.49-7.23,9.32-.18.27-.22.57-.13.87.1.31.3.53.6.65ZM203.08,175.88c-1.14,2.32-2.67,4.48-4.99,6.05-1.19.8-2.44,1.39-3.72,1.79-.33.1-.57.33-.68.66-.11.33-.06.66.15.93.02.02.03.05.05.07.2.28.49.43.84.43l48.83-.07c.38,0,.71-.19.9-.53.19-.33.18-.72-.02-1.04-1.35-2.2-2.59-4.37-3.72-6.36-2.15-3.78-3.89-6.83-4.59-7.27-4.63-2.85-9.2-1.29-15.04.72-4.74,1.63-10.16,3.49-17.16,4.04-.37.03-.68.24-.84.57ZM276.53,183.86c-7.59-6.17-13.14-14.18-18.16-21.42-4.24-6.12-8.06-11.63-12.08-14.22-8.18-5.28-14.54-3.28-22.33-.82-3.84,1.21-7.97,2.51-12.8,3.3-.31.05-.56.22-.72.49-.16.27-.19.57-.09.87,1.3,3.7,4.7,7.95,1.46,10.04-1.11.71-1.89,1.25-2.48,1.68-.4.29-.53.81-.32,1.26.21.45.7.68,1.18.56,2.96-.72,5.63-1.63,8.1-2.48,7.98-2.74,14.23-4.89,22.34.12,2.58,1.59,4.8,5.49,7.55,10.33,2.09,3.67,4.54,7.98,7.36,11.74.2.27.49.41.83.41l19.52-.03c.44,0,.82-.27.97-.69.15-.42.02-.86-.32-1.14ZM306.73,194.22h0s-.21,0-.21,0l-109.94.15c-.45,0-.83.27-.97.7-.37,1.07-.93,2.14-1.73,3.19-1.2,1.59-2.21,2.99-3.05,4.14-2.05,2.84-3.21,4.44-4.9,5.69-2.48,1.84-4.51,1.98-9.15,2.29l-1.62.11c-.32.02-.6-.09-.82-.32l-1.06-1.13c-.56-.59-1.05-1.07-1.47-1.27h0c-.2-.1-.49-.12-.93-.04-1.78.31-4.13.66-6.64.87-.4.03-.72.27-.87.64-.15.37-.08.76.17,1.06,6.11,7.08,16.69,17.08,32.85,25.28.47.24,1.05.08,1.33-.36,5.56-8.64,15.48-22.63,34.37-26.61.03,0,.06-.01.09-.02,6.64-2.05,14.64-1.34,24.96-.42,12.06,1.07,27.62,2.46,48.13-.41.06,0,.11-.01.17-.01l1.24.03c.06,0,.11,0,.18.02,9.94,1.96,18.23,3.19,25.48,3.89.3.03.58-.06.8-.27.22-.21.34-.47.33-.78l-.28-14.83c0-.53-.42-.97-.96-1.01-4.73-.33-8.5-.56-10.75-.62h0s-14.76.02-14.76.02ZM179.56,392.92c-41.69-2.36-62.49,15.71-70.18,24.72-.23.27-.3.6-.21.94.09.34.33.59.66.7,15.84,5.45,72.59.54,102.72-2.06,9.4-.81,16.27-1.41,18.81-1.41,6.55,0,33.07,1.29,50.96,2.2.46.02.85-.24,1.02-.66.16-.43.03-.89-.32-1.17-1.41-1.12-3.3-2.36-5.17-2.73-1.59-.32-3.46-.59-5.19-.85-3.43-.5-6.4-.93-8.45-2.07-1.19-.66-2.11-1.73-3.32-3.14-2.47-2.86-6.79-7.87-13.09-7.97-4.85-.08-7.76,2.17-10.29,4.13-2.75,2.13-5.21,4.03-9.09,4.29-7.65.51-22.11-4.95-35.91-10.17-4.42-1.67-8.78-3.32-12.66-4.68-.1-.03-.18-.05-.28-.06ZM101.86,413.29c8.1-9.91,31.08-31.28,77.12-29,.23.01.42-.04.62-.17,3.71-2.42,13.95-8.93,24.31-14,.36-.18.58-.52.58-.92,0-.4-.21-.75-.57-.93-14.56-7.24-26.9-18.29-35.61-34.51-.15-.28-.38-.45-.69-.52-.3-.07-.59,0-.84.18-13.55,10.17-49.96,38-59.87,50.59-3.51,4.46-6.29,9.05-7.93,13.46-1.37,3.69-1.91,7.19-1.36,10.26.36,1.99,1.22,3.87,2.66,5.58.2.24.48.37.8.37.32,0,.59-.13.79-.38ZM283.94,390.99c15.69,1.48,28.56-.36,41.34-2.18,6.55-.94,13.08-1.87,20.02-2.37.41-.03.75-.28.89-.67.14-.39.05-.8-.24-1.09-4.56-4.55-9.24-9.52-11.83-12.31-.25-.27-.6-.38-.96-.31-20.72,4.15-43.6,7.76-65.87,8.11-.47,0-.87.32-.98.78-.11.46.09.92.5,1.15,5.58,3.09,11.2,6.02,16.77,8.79.12.06.23.09.36.1ZM357.35,394.64c-11.01-.16-20.91,1.26-30.86,2.68-6.38.91-12.78,1.83-19.56,2.35-.48.04-.86.38-.94.85-.08.47.16.92.6,1.12,14.72,6.48,27.9,11.61,37.34,15.28,4.11,1.6,7.52,2.93,10.09,3.99,2.87,1.19,8.62,3.45,15.79,6.27,26.9,10.57,74.25,29.17,87.96,38.32,13.05,8.7,38.47,36.17,50.21,49.19.31.35.8.44,1.22.23.42-.21.64-.65.55-1.11-.12-.65-.05-1.37.67-2.18,0-.01.02-.02.03-.03,1.03-1.07,2.47-2.7,3.93-4.46,1.88-2.26,2.15-2.75.23-4.78-.03-.03-.06-.06-.09-.08-.26-.22-.52-.43-.78-.65-.18-.15-.29-.32-.34-.54-.09-.34-.17-.69-.26-1.04-1.01-4.05-4.19-6.38-7.37-8.71-3.21-2.35-6.42-4.7-8.71-8.74-.74-1.3-1.35-2.62-2.01-4.06-2.08-4.51-4.77-10.34-11.72-14.86-4.3-2.79-8.48-3.11-12.26-3.39-4.8-.36-9.14-.69-13.51-4.4-2.43-2.06-6.2-6.34-10.85-11.62-9.64-10.93-23.22-26.34-33.74-32.48-9.35-5.45-25.54-9.27-38.04-12.21-7.48-1.76-13.72-3.23-17.17-4.82-.14-.06-.27-.09-.42-.1ZM144.97,210.59c5.72,16.61,16.57,31.32,29.1,43.27,13.64,13,29.17,22.69,42.26,28.02.39.16.81.07,1.11-.22.3-.3.39-.72.23-1.11-2.94-7.47-5.96-17.82-5.75-28.56,0-.46-.27-.85-.71-1-35.79-11.82-53.96-34-59.72-42.26-.24-.34-.64-.5-1.05-.42l-4.72.94c-.3.06-.54.23-.69.5-.15.27-.18.56-.08.85ZM225.46,293.84c-15.88-3.68-38.44-15.77-57.3-33.76-9.36-8.93-17.86-19.32-24.25-30.9-.21-.38-.6-.58-1.03-.52-.43.05-.76.35-.87.76-.17.64-.35,1.27-.56,1.86-1.12,3.31-2.52,5.75-3.83,8.04-1.93,3.39-3.65,6.39-3.11,11.93.44,4.57,1.57,7.95,3.36,11,1.86,3.19,4.56,6.25,7.96,9.98,11.16,12.22,16.45,25.36,21.94,39.02,1.73,4.31,3.49,8.67,5.5,13.14,13.2,29.29,38.58,41.93,67.76,45.81,27.27,3.63,57.93-.29,85.32-5.55.36-.07.64-.3.77-.64.13-.34.08-.7-.14-.99-35.36-47.03-98.48-68.18-101.43-69.15-.03,0-.06-.02-.09-.02ZM426.97,210.5c.17-3.19.26-6.49.26-9.89,0-1.88-.03-3.73-.08-5.55-.02-.56-.47-1-1.03-1h-1.28s-.25,0-.25,0h-.5s-.25,0-.25,0h-.75s-.25,0-.25,0h-.75s-.25,0-.25,0h-.5s-.25,0-.25,0h-.75s-.25,0-.25,0h-.75s-.25,0-.25,0h-1s-.25,0-.25,0h-.47c-.19,0-.36.04-.52.14-1.52.89-4.17,2.42-6.46,3.64-.35.18-.55.52-.55.91l.02,9.9c0,.52.39.96.91,1.02l15.02,1.78c.29.04.56-.04.79-.23.23-.19.35-.44.37-.73ZM352.99,156.42c-11.9-.13-29.7-.71-45.81-1.95-6.12-.47-12.04-1.05-17.34-1.73-.45-.06-.87.17-1.06.59-.19.41-.1.88.23,1.19,4.31,3.99,9.04,7.42,14.6,9.8,6.4,2.73,15.45,4.38,24.65,5.35,8.9.94,17.87,1.23,24.75,1.24.57,0,1.03.46,1.03,1.03v6.53c0,.28-.1.53-.3.73-.2.2-.45.3-.73.3-7.16-.02-16.43-.33-25.62-1.29-9.95-1.05-19.87-2.88-27.14-5.98-11.98-5.12-20.13-13.85-27.97-23.01l-.22-.08.05-.13c-.8-.93-1.6-1.87-2.39-2.82-1.37-1.62-2.74-3.23-3.73-4.37-2.83-3.27-5.4-6.43-7.87-9.49-.02-.02-.03-.04-.05-.06-5.78-6.21-11.16-9.54-16.29-11.09-5.1-1.54-9.9-1.42-14.12-.84-5.55.75-10.84,3.05-16.12,5.33-.88.38-1.77.77-2.66,1.14-.27.12-.47.32-.57.6-.1.28-.08.56.05.82,2.14,4.16,2.1,8.22,1.82,12.6-.02.33.1.62.35.84.25.22.56.3.88.24,3.63-.72,6.92-1.75,10-2.72,9.9-3.12,17.97-5.66,29.53,1.8,5.45,3.52,9.74,9.7,14.5,16.58,8.84,12.75,19.55,28.2,41.18,28.08l118.89-.16c.3,0,.56-.11.76-.34.2-.22.29-.49.27-.79-3.82-42.67-22.44-66.09-38.19-85.89-15.95-20.05-29.14-36.64-23.49-64.35.08-.38-.05-.74-.34-.99-.29-.25-.67-.32-1.03-.18-34.83,12.91-66.08,33.2-91.85,58.97-6.36,6.36-12.39,13.06-18.05,20.06-.32.39-.31.95.03,1.33,3.09,3.53,6.09,7.28,9.21,11.17,3.07,3.82,6.25,7.79,9.65,11.72,1.54,1.78,2.67,3.11,3.79,4.44l.75.88c.14.17.31.27.52.33,6.62,1.77,17.93,3.09,30.3,4.04,16,1.23,33.54,1.82,45.2,1.95.56,0,1.02.47,1.02,1.03v6.52c0,.29-.1.53-.31.73-.2.2-.45.3-.73.3ZM445.71,468.48c-18.39-9.48-56.17-24.32-79.02-33.3-6.83-2.69-12.31-4.84-15.93-6.33-2.47-1.02-5.85-2.34-9.92-3.92-21.18-8.24-60.93-23.7-95.33-45.46-.14-.09-.28-.14-.45-.15-1.72-.17-3.44-.37-5.14-.6-6.93-.92-13.66-2.3-20.11-4.23-.39-.12-.8,0-1.07.31-.27.31-.34.72-.17,1.1,3.27,7.38,6.88,14.58,10.81,21.57.15.26.38.44.68.5.3.07.58,0,.83-.17.44-.32.9-.68,1.38-1.04,3.63-2.81,7.8-6.03,15.64-5.91,10.19.16,16.1,7.02,19.48,10.93.66.76.84,1.17,1,1.25.65.36,2.9.69,5.49,1.06,1.74.25,3.61.52,5.69.95,4.41.9,8.43,4.03,10.49,5.88.16.14.33.22.54.25,1.47.21,3.53.66,6.08,1.6,7.92,2.94,6.61,11.01,6.6,11.03l-.44,2.95c-.08.53-.54.9-1.07.88l-2.96-.16c-.12,0-29.04-1.54-49.4-2.43-.41-.02-.77.19-.96.55-.19.36-.16.77.09,1.1,7.09,9.36,14.81,18.21,23.1,26.5,28.05,28.05,62.61,49.61,101.2,62.23.25.08.48.07.72-.03,26.62-11.11,51.02-26.46,72.37-45.21.26-.23.39-.55.34-.9-.04-.35-.24-.63-.55-.79ZM477.98,452.42c3.09.59,6.41,1.7,10.02,4.05,9.05,5.88,12.32,12.97,14.85,18.46.6,1.31,1.16,2.52,1.67,3.42,1.38,2.43,3.85,4.24,6.33,6.05,4.1,3,8.19,6,10.18,12.02.05.16.13.29.26.41,1.08,1.06,2.26,2.45,3.02,3.93,2.47,4.81-.32,8.1-3.2,11.72-.78.98-1.59,1.93-2.34,2.77-.22.25-.31.56-.24.89,1.33,6.71-4.2,11.84-7.35,13.78-.43.27-.98.18-1.31-.2-.7-.8-1.4-1.6-2.11-2.4-.1-.12-34.95-39.85-52.35-52.96-.4-.3-.94-.27-1.31.06-48.21,43.4-112.01,69.82-181.99,69.82-75.14,0-143.17-30.46-192.41-79.7C30.46,415.28,0,347.25,0,272.11S30.46,128.94,79.7,79.7C128.94,30.46,196.97,0,272.11,0s143.17,30.46,192.41,79.7c49.24,49.24,79.7,117.27,79.7,192.41,0,68.35-25.21,130.82-66.83,178.62-.25.29-.32.66-.2,1.01.12.36.41.6.78.67ZM374.6,30.55c-7.53,27.37,5.05,43.19,20.47,62.57,16.64,20.92,36.35,45.7,40.13,91.4.04.54.49.95,1.03.95h10.88c.57-.02,1.03-.48,1.03-1.05v-10.07c0-.36.17-.67.47-.87.3-.2.66-.22.98-.07,5.32,2.41,10.65,4.83,15.97,7.25,5.97,2.71,11.95,5.42,17.92,8.13.38.17.6.53.6.94s-.23.77-.6.94c-11.3,5.13-22.59,10.25-33.89,15.38-.33.15-.68.12-.98-.07-.3-.2-.47-.51-.47-.87v-10.05c0-.57-.46-1.03-1.03-1.03h-1.07c-.51,0-.94.38-1.02.89-.58,4-4.41,3.62-4.7,11.34-.15,4.12-.25,10.71-4.8,12.73-.35.15-.57.46-.61.84-4.41,43.7-23.59,67.82-39.84,88.26-16.67,20.96-30.03,37.76-18.21,69.51.12.33.08.66-.12.95-.2.29-.5.44-.85.44h-6.94c-.45,0-.83-.27-.97-.69-12.1-34.73,2.38-52.94,20.37-75.56,15.23-19.14,33.14-41.67,37.76-81.71.03-.29-.04-.55-.23-.77-.19-.23-.43-.35-.72-.37-6.41-.49-13.25-2.12-18.81-2.12-13.95,0-24.07.96-33.39,1.84-18.57,1.76-34.04,3.22-66.96-3.2-.12-.02-.22-.02-.34,0-8.33,1.13-15.87,1.59-22.69,1.66-.45,0-.82.28-.96.7-.14.42-.01.87.34,1.14,2.06,1.61,4.28,2.97,6.85,3.99,9.03,3.57,19.45,5.27,30.5,6.11.02,0,.03,0,.05,0,10.4.34,21.51.64,33.28.88.56.01,1.01.47,1.01,1.03v6.55c0,.29-.1.53-.31.73-.2.2-.45.3-.73.3l-3.84-.03c-10.15-.08-20.32-.16-30.1-.9-.02,0-.03,0-.04,0-50.18-1.63-83.79-4.07-95.31-5-.51-.04-.97.29-1.08.79-1.11,4.7-1.86,10.39-2.09,17.12-.52,15.04,6.39,29.5,8.99,34.38.13.24.31.4.57.49,11.89,4.18,75.39,28.37,108.53,78.26.03.05.06.09.1.13,2.35,2.56,17.4,18.89,22.32,22.07,1.62,1.05,7.98,2.55,15.85,4.4,13.04,3.07,29.93,7.05,40.39,13.16,11.78,6.87,25.88,22.87,35.89,34.23,4.46,5.05,8.07,9.15,9.95,10.75.61.52,1.27.91,1.98,1.21.41.17.86.08,1.17-.25,43.06-46.9,69.36-109.46,69.36-178.16,0-72.76-29.49-138.64-77.18-186.32-23.51-23.51-51.44-42.6-82.44-55.91-.28-.12-.58-.12-.85.02-.28.13-.47.36-.55.66ZM357.89,519.41c-35-13.39-66.43-34.01-92.46-60.03-10.62-10.62-20.34-22.14-29.04-34.44-.19-.27-.48-.42-.81-.44-1.78-.05-3.23-.08-4.22-.08-2.19,0-8.9.58-18.07,1.37-31.04,2.68-89.75,7.76-106.84,1.42-3.72-1.38-6.79-3.08-9.27-5.03-4.58-3.6-7.11-8.02-8-12.94-.85-4.7-.14-9.71,1.73-14.76,1.95-5.26,5.19-10.64,9.24-15.78,10.98-13.94,51.24-44.49,63.24-53.46.38-.29.52-.79.33-1.23-1.36-3.19-2.65-6.39-3.92-9.56-5.19-12.91-10.19-25.33-20.32-36.43-3.74-4.1-6.73-7.5-9.04-11.45-2.38-4.09-3.89-8.54-4.46-14.5-.8-8.25,1.54-12.35,4.19-16.98,1.11-1.94,2.28-4,3.15-6.56.28-.82.52-1.72.72-2.67.1-.48-.14-.95-.58-1.15-9.15-4.19-23.64-6.88-27.44-7.54-.13-.02-.24-.02-.37,0-18.27,3.57-35.28,6.8-37.62,6.96-.58.05-1.14.09-1.67.11-7.12.33-12.85-1.62-16.97-4.87-4.3-3.4-6.79-8.17-7.28-13.3-.03-.35-.06-.67-.07-.98-.35-7.49,2.25-12.78,7.07-16.47,4.36-3.34,10.45-5.12,17.7-5.93,19.66-2.2,45.18-.79,64.66.3,2.84.16,5.55.31,8.08.44.44.02.83-.22,1-.62.17-.4.08-.85-.23-1.15-8.36-8.02-13.44-18.58-15.08-29.74-1.32-8.94-.41-18.29,2.79-27.04,3.21-8.77,8.71-16.92,16.58-23.45,14.75-12.23,37.78-18.76,69.53-12.79h0c1.17.2,2.33.46,3.49.77,12.25,3.34,21,9,28.54,16.09.22.2.48.3.77.28.3-.02.54-.15.73-.38,5.6-6.85,11.54-13.42,17.8-19.67,26.32-26.32,58.18-47.11,93.66-60.49.41-.15.67-.53.67-.98,0-.44-.27-.81-.69-.96-27.22-9.51-56.49-14.69-86.96-14.69-72.76,0-138.64,29.49-186.33,77.18C38.1,133.47,8.61,199.35,8.61,272.11s29.49,138.64,77.18,186.33c47.69,47.68,113.56,77.18,186.33,77.18,30.02,0,58.86-5.02,85.74-14.27.42-.14.69-.52.69-.96,0-.44-.25-.82-.66-.98Z"></path></svg></svg></g></g></svg>