<?xml version="1.0" encoding="UTF-8"?><svg id="Layer_1" xmlns="http://www.w3.org/2000/svg" xmlns:xlink="http://www.w3.org/1999/xlink" viewBox="0 0 902.18 643.76"><defs><style>.cls-1{fill:url(#linear-gradient-8);}.cls-2{fill:url(#linear-gradient-7);}.cls-3{fill:url(#linear-gradient-5);}.cls-4{fill:url(#linear-gradient-6);}.cls-5{fill:url(#linear-gradient-9);}.cls-6{fill:url(#linear-gradient-4);}.cls-7{fill:url(#linear-gradient-3);}.cls-8{fill:url(#linear-gradient-2);}.cls-9{fill:url(#linear-gradient);}.cls-10{fill:#fef9f5;}.cls-11{fill:url(#linear-gradient-10);}.cls-12{fill:url(#linear-gradient-11);}.cls-13{fill:url(#linear-gradient-12);}.cls-14{fill:url(#linear-gradient-13);}.cls-15{fill:url(#linear-gradient-14);}.cls-16{fill:url(#linear-gradient-15);}</style><linearGradient id="linear-gradient" x1="-20.87" y1="496.44" x2="887.14" y2="470.55" gradientUnits="userSpaceOnUse"><stop offset=".13" stop-color="#a88c65"/><stop offset=".47" stop-color="#f3e5c0"/><stop offset=".9" stop-color="#c7ad72"/></linearGradient><linearGradient id="linear-gradient-2" x1="-20.81" y1="498.65" x2="887.2" y2="472.75" xlink:href="#linear-gradient"/><linearGradient id="linear-gradient-3" x1="-20.77" y1="499.95" x2="887.24" y2="474.06" xlink:href="#linear-gradient"/><linearGradient id="linear-gradient-4" x1="-19.12" y1="557.98" x2="888.9" y2="532.08" xlink:href="#linear-gradient"/><linearGradient id="linear-gradient-5" x1="-19.08" y1="559.44" x2="888.94" y2="533.55" xlink:href="#linear-gradient"/><linearGradient id="linear-gradient-6" x1="-19.22" y1="554.48" x2="888.8" y2="528.58" xlink:href="#linear-gradient"/><linearGradient id="linear-gradient-7" x1="-20.52" y1="508.94" x2="887.5" y2="483.04" xlink:href="#linear-gradient"/><linearGradient id="linear-gradient-8" x1="-20.44" y1="511.67" x2="887.58" y2="485.77" xlink:href="#linear-gradient"/><linearGradient id="linear-gradient-9" x1="-20.33" y1="515.5" x2="887.69" y2="489.6" xlink:href="#linear-gradient"/><linearGradient id="linear-gradient-10" x1="-20.26" y1="517.92" x2="887.75" y2="492.02" xlink:href="#linear-gradient"/><linearGradient id="linear-gradient-11" x1="-20.18" y1="520.84" x2="887.84" y2="494.94" xlink:href="#linear-gradient"/><linearGradient id="linear-gradient-12" x1="-20.09" y1="523.79" x2="887.92" y2="497.89" xlink:href="#linear-gradient"/><linearGradient id="linear-gradient-13" x1="-20.03" y1="526" x2="887.98" y2="500.1" xlink:href="#linear-gradient"/><linearGradient id="linear-gradient-14" x1="-19.95" y1="528.71" x2="888.06" y2="502.81" xlink:href="#linear-gradient"/><linearGradient id="linear-gradient-15" x1="251.73" y1="196.42" x2="644.57" y2="196.42" xlink:href="#linear-gradient"/></defs><path class="cls-9" d="M802.9,456.37v14.16h14c3.28,0,4.08-3.36,4.24-4v8.72s-.56-4.08-4.24-4.08h-14v18.48s-.24,4,3.92,4.64h-11.76c4.16-.64,3.92-4.64,3.92-4.64v-33.28s.24-4-3.92-4.64h30.88l2.08,6.48s-3.44-5.84-6.96-5.84h-14.08c-4.16,0-4.08,4-4.08,4Z"/><path class="cls-8" d="M839.86,489.64v-21.44c0-.4.16-2.4-2.88-2.96l6.8-3.2v27.6s-.24,4,3.92,4.64h-11.76c4.16-.64,3.92-4.64,3.92-4.64ZM838.42,456.69c0-1.68,1.36-3.04,3.04-3.04s2.96,1.36,2.96,3.04-1.36,2.96-2.96,2.96c-1.68,0-3.04-1.36-3.04-2.96Z"/><path class="cls-7" d="M869.94,491.16c-.16.48-1.52,3.36-4.48,3.36-6.16,0-7.36-4.08-7.36-9.28v-23.2h-3.76v-.64h1.76c3.44-.48,5.68-5.92,5.92-6.48v6.48h6.16v.64h-6.16v24.24c0,2.08.24,7.2,3.84,7.2,2.32,0,3.84-1.92,4.08-2.32ZM869.94,491.16c.08,0,.08-.08.08-.08l-.08.08Z"/><path class="cls-6" d="M853.38,556.32c-1.6.96-3.44,1.84-5.2,2.48-2.08.72-4.24,1.12-6.48,1.2-2.16.16-4.4-.08-6.56-.48-2.16-.48-4.32-1.12-6.4-1.84-4.16-1.44-8.16-3.2-12.32-4.64-2.08-.64-4.16-1.28-6.32-1.68-1.52-.32-3.12-.56-4.64-.64h-10.4c4.16-.64,3.92-4.64,3.92-4.64v-33.28s.24-4-3.92-4.64h11.76c-4.16.64-3.92,4.64-3.92,4.64v33.28c0,1.76.64,4,2.88,4.08,1.44.16,2.96.32,4.4.64,2.16.48,4.32,1.12,6.4,1.84,4.16,1.44,8.16,3.28,12.32,4.8,2.08.72,4.16,1.36,6.32,1.84,2.08.48,4.32.64,6.48.56,2.24-.08,4.4-.48,6.48-1.12,1.76-.64,3.6-1.44,5.2-2.4ZM853.7,556.16l.4-.32-.4.32Z"/><path class="cls-3" d="M860.1,550.72c-4.72,0-6.72-2.08-6.88-4.48-.4.32-5.36,4.72-12.4,4.72s-10.08-3.04-10.08-7.28c0-9.52,19.92-13.76,22.4-15.12v-.24c-.08-4.64-1.92-9.2-9.04-9.2-1.36,0-2.72.08-4,.32-1.36.32-2.64.72-3.76,1.52l-.72.64-.64.72c-.32.56-.48,1.28-.4,1.84.08.64.4,1.28.88,1.76.4.48.96.88,1.6,1.2,1.12.64,2.48,1.04,3.84,1.36.64.16,1.28.24,2,.32l2.08.16c2.64.08,5.28,0,7.92-.32-2.64.4-5.28.56-8,.48l-2-.16-2.08-.24c-1.36-.32-2.72-.64-3.92-1.36-.64-.32-1.2-.72-1.68-1.2-.48-.56-.88-1.2-1.04-1.92-.08-.72.08-1.44.48-2.08.16-.32.4-.64.64-.88l.8-.72c1.2-.8,2.48-1.28,3.84-1.6s2.8-.48,4.16-.48c4.88,0,12.96,1.76,12.96,10.48v17.76c0,2.24,1.44,3.52,3.04,4ZM853.14,529.28c-2.4,1.36-18.32,4.88-18.32,13.44,0,3.52,3.12,7.44,6.72,7.44,5.84,0,11.04-4.32,11.6-4.8v-16.08Z"/><path class="cls-4" d="M898.1,534.64c0-8.88-5.12-15.84-12.88-15.84-.72,0-1.36.08-2.08.16-.64.08-1.36.24-1.92.64-.32.08-.56.32-.8.56l-.64.72c-.16.32-.32.64-.4.96-.16.32-.24.64-.24,1.04-.24,1.36-.08,2.8.08,4.16.16,1.44.32,2.8.56,4.24.16,1.44.32,2.88.4,4.32,0,1.36,0,2.8-.24,4.24-.16,1.44-.48,2.8-1.04,4.16l-.8,1.52.72-1.52c.56-1.36.8-2.8,1.04-4.16.16-1.44.16-2.88.08-4.24-.08-1.44-.32-2.88-.48-4.24-.24-1.44-.48-2.88-.64-4.24-.16-1.44-.32-2.88-.16-4.32l.24-1.12c.08-.32.24-.72.48-1.04.16-.32.4-.64.64-.88.32-.24.64-.48.96-.64.64-.4,1.36-.56,2.08-.72.72-.16,1.44-.16,2.08-.16h.08c9.04,0,16.96,7.36,16.96,16.4s-7.92,16.4-17.04,16.32c-3.2,0-6.24-.96-8.72-2.56-1.52,2.4-6.32,2.32-6.32,2.32,3.2-.96,2.88-4.64,2.88-4.64v-33.28c0-.4.16-2.4-2.88-2.96l6.72-3.2v40.08c0,.32,0,.64-.08.96,2.24,1.6,5.68,2.72,8.48,2.72,7.76,0,12.88-6.96,12.88-15.76ZM877.46,546.64l-.24.4.24-.4Z"/><path class="cls-2" d="M81.2,553.48h-24.26c5.8-.88,5.98-5.63,4.92-8.44l-11.6-27.07-18.63-44.13c-1.93,5.45-4.22,10.55-6.68,15.65-2.99,5.8-6.33,11.25-9.84,16.7l-5.27,7.91-4.92,8.26c-1.58,2.64-2.99,5.63-3.69,8.61-.88,2.99-.88,6.33,0,9.32.7,3.16,2.29,5.98,4.39,8.26,1.05,1.06,2.46,2.11,3.69,2.81,1.41.88,2.99,1.41,4.39,1.93,1.58.35,3.16.53,4.75.7,1.58,0,3.16,0,4.75-.35,3.16-.7,5.98-2.11,8.44-4.04,1.41-1.06,2.46-2.11,3.69-3.16-1.05,1.23-2.11,2.28-3.52,3.34-2.46,1.93-5.45,3.52-8.61,4.04-1.58.35-3.16.53-4.75.53-1.58-.18-3.16-.35-4.75-.7-1.58-.53-3.16-1.05-4.57-1.93-1.41-.7-2.64-1.76-3.87-2.81-2.29-2.29-3.87-5.27-4.57-8.44-.88-3.16-.88-6.5-.18-9.67.7-3.16,2.11-6.15,3.69-8.97,1.41-2.81,3.16-5.45,4.92-8.26l5.1-8.09c3.34-5.27,6.5-10.9,9.32-16.53,2.81-5.8,5.27-11.6,7.03-17.76.88-2.81,3.34-11.25,3.34-11.25h1.05l36.21,85.09s3.16,7.38,10.02,8.44ZM35.32,546.44c1.05-1.23,2.11-2.46,2.99-3.69,1.76-2.28,3.16-4.75,4.57-7.21-1.23,2.64-2.64,5.1-4.4,7.21-.88,1.41-1.93,2.64-3.16,3.69ZM42.88,535.54l.53-.88-.53.88ZM44.46,532.73l.88-2.11-.88,2.11ZM47.45,525.52l.88-2.11-.88,2.11Z"/><path class="cls-1" d="M196.88,470.15v73.13s-.53,8.79,8.61,10.2h-25.67c9.14-1.41,8.61-10.2,8.61-10.2v-76.82l-36.21,87.02h-3.16l-37.97-87.02v76.82s-.53,8.79,8.61,10.2h-18.63c9.14-1.41,8.61-10.2,8.61-10.2v-73.13s.53-8.79-8.61-10.2h16.53l36.74,84.56,35.16-84.56h16c-9.14,1.41-8.61,10.2-8.61,10.2Z"/><path class="cls-5" d="M311.32,553.48h-24.26c5.8-.88,5.98-5.63,4.92-8.44l-11.6-27.07-18.63-44.13c-1.93,5.45-4.22,10.55-6.68,15.65-2.99,5.8-6.33,11.25-9.85,16.7l-5.27,7.91-4.92,8.26c-1.58,2.64-2.99,5.63-3.69,8.61-.88,2.99-.88,6.33,0,9.32.7,3.16,2.29,5.98,4.39,8.26,1.05,1.06,2.46,2.11,3.69,2.81,1.41.88,2.99,1.41,4.4,1.93,1.58.35,3.16.53,4.75.7,1.58,0,3.16,0,4.75-.35,3.16-.7,5.98-2.11,8.44-4.04,1.41-1.06,2.46-2.11,3.69-3.16-1.05,1.23-2.11,2.28-3.52,3.34-2.46,1.93-5.45,3.52-8.61,4.04-1.58.35-3.16.53-4.75.53-1.58-.18-3.16-.35-4.75-.7-1.58-.53-3.16-1.05-4.57-1.93-1.41-.7-2.64-1.76-3.87-2.81-2.29-2.29-3.87-5.27-4.57-8.44-.88-3.16-.88-6.5-.18-9.67.7-3.16,2.11-6.15,3.69-8.97,1.41-2.81,3.16-5.45,4.92-8.26l5.1-8.09c3.34-5.27,6.5-10.9,9.32-16.53,2.81-5.8,5.27-11.6,7.03-17.76.88-2.81,3.34-11.25,3.34-11.25h1.05l36.21,85.09s3.16,7.38,10.02,8.44ZM265.44,546.44c1.05-1.23,2.11-2.46,2.99-3.69,1.76-2.28,3.16-4.75,4.57-7.21-1.23,2.64-2.64,5.1-4.4,7.21-.88,1.41-1.93,2.64-3.16,3.69ZM273,535.54l.53-.88-.53.88ZM274.58,532.73l.88-2.11-.88,2.11ZM277.57,525.52l.88-2.11-.88,2.11Z"/><path class="cls-11" d="M411.52,536.95l-5.27,16.53h-72.43l64.17-92.12h-46.41c-9.32,0-16.7,13.18-17.76,15.29l5.45-16.7h70.14l-64.17,92.12h48.7c9.14,0,16.53-13.18,17.58-15.12Z"/><path class="cls-12" d="M475.16,554.53c-23.73,0-48.35-17.58-48.35-47.82s24.61-47.82,48.35-47.82,48.52,17.76,48.52,47.82-24.61,47.82-48.52,47.82ZM475.16,553.12c21.27,0,39.03-19.16,39.03-46.41s-17.76-46.24-39.03-46.24-38.85,19.16-38.85,46.24,17.76,46.41,38.85,46.41Z"/><path class="cls-13" d="M549.18,543.28v-75.07c-.7-4.92-5.8-8.26-5.8-8.26h11.08l58.19,79.11v-68.91s.53-8.79-8.61-10.2h18.81c-9.14,1.41-8.79,10.2-8.79,10.2v83.33h-1.41l-62.06-83.86v73.66s-.53,8.79,8.61,10.2h-18.63c9.14-1.41,8.61-10.2,8.61-10.2Z"/><path class="cls-14" d="M651.84,543.28v-73.13s.53-8.79-8.61-10.2h25.84c-9.14,1.41-8.61,10.2-8.61,10.2v73.13s-.53,8.79,8.61,10.2h-25.84c9.14-1.41,8.61-10.2,8.61-10.2Z"/><path class="cls-15" d="M774.9,553.48h-24.26c5.8-.88,5.98-5.63,4.92-8.44l-11.6-27.07-18.63-44.13c-1.93,5.45-4.22,10.55-6.68,15.65-2.99,5.8-6.33,11.25-9.85,16.7l-5.27,7.91-4.92,8.26c-1.58,2.64-2.99,5.63-3.69,8.61-.88,2.99-.88,6.33,0,9.32.7,3.16,2.29,5.98,4.39,8.26,1.05,1.06,2.46,2.11,3.69,2.81,1.41.88,2.99,1.41,4.4,1.93,1.58.35,3.16.53,4.75.7,1.58,0,3.16,0,4.75-.35,3.16-.7,5.98-2.11,8.44-4.04,1.41-1.06,2.46-2.11,3.69-3.16-1.05,1.23-2.11,2.28-3.52,3.34-2.46,1.93-5.45,3.52-8.61,4.04-1.58.35-3.16.53-4.75.53-1.58-.18-3.16-.35-4.75-.7-1.58-.53-3.16-1.05-4.57-1.93-1.41-.7-2.64-1.76-3.87-2.81-2.29-2.29-3.87-5.27-4.57-8.44-.88-3.16-.88-6.5-.18-9.67.7-3.16,2.11-6.15,3.69-8.97,1.41-2.81,3.16-5.45,4.92-8.26l5.1-8.09c3.34-5.27,6.5-10.9,9.32-16.53,2.81-5.8,5.27-11.6,7.03-17.76.88-2.81,3.34-11.25,3.34-11.25h1.05l36.21,85.09s3.16,7.38,10.02,8.44ZM729.02,546.44c1.05-1.23,2.11-2.46,2.99-3.69,1.76-2.28,3.16-4.75,4.57-7.21-1.23,2.64-2.64,5.1-4.4,7.21-.88,1.41-1.93,2.64-3.16,3.69ZM736.58,535.54l.53-.88-.53.88ZM738.16,532.73l.88-2.11-.88,2.11ZM741.15,525.52l.88-2.11-.88,2.11Z"/><path class="cls-10" d="M276.27,623.3c0,3.6-3.39,4.41-6.1,4.41-3.01,0-5.29-1.14-5.29-1.14l-.42-3.05s2.67,3.85,5.72,3.85c1.99,0,4.45-.8,4.45-3.35,0-4.45-9.62-3.64-9.62-9.53,0-2.8,2.71-4.11,5.51-4.11,2.63,0,4.11.89,4.11.89l.38,2.92s-1.65-3.47-4.49-3.47c-2.12,0-3.85.89-3.85,3.43,0,3.94,9.62,3.6,9.62,9.15Z"/><path class="cls-10" d="M288.55,625.92c-.08.25-.8,1.78-2.37,1.78-3.26,0-3.9-2.16-3.9-4.91v-12.28h-1.99v-.34h.93c1.82-.25,3.01-3.13,3.13-3.43v3.43h3.26v.34h-3.26v12.83c0,1.1.13,3.81,2.03,3.81,1.23,0,2.03-1.02,2.16-1.23ZM288.55,625.92s.04-.04.04-.04l-.04.04Z"/><path class="cls-10" d="M299.19,627.58h-6.23c2.2-.34,2.08-2.46,2.08-2.46v-11.35c0-.21.08-1.27-1.53-1.57l3.6-1.69v4.15c.55-.97,2.67-4.32,5.59-4.32,2.46,0,3.3.93,3.3.93l-1.02,3.13c.08-.8-.72-3.35-2.75-3.35-2.46,0-4.57,3.22-5.12,4.11v9.95s-.13,2.12,2.08,2.46Z"/><path class="cls-10" d="M309.56,619.02c0-5.08,3.05-8.64,8.3-8.64,4.53,0,7.29,3.39,7.41,7.79v.38h-13.51c0,.13-.04.3-.04.47,0,4.49,2.46,8.22,6.86,8.22,3.94,0,6.23-3.52,6.23-3.52l.25.17s-2.37,3.85-6.48,3.85c-5.29,0-9.02-3.69-9.02-8.73ZM311.77,618.17h11.31c-.08-3.09-1.48-7.46-5.21-7.46-3.98,0-5.89,3.22-6.1,7.46Z"/><path class="cls-10" d="M331.89,625.12v-11.35c0-.21.08-1.27-1.52-1.57l3.6-1.69v3.52c.63-.93,2.84-3.73,5.8-3.73,4.15,0,6.31,1.99,6.31,5.08v9.74s-.13,2.12,2.08,2.46h-6.23c2.2-.34,2.12-2.46,2.12-2.46v-9.7c0-2.88-1.74-4.7-4.53-4.7s-5.17,3.18-5.55,3.77v10.63s-.13,2.12,2.08,2.46h-6.23c2.2-.34,2.08-2.46,2.08-2.46Z"/><path class="cls-10" d="M352.26,635.92c0,3.77,4.45,5.63,8.9,5.63s9.57-1.06,9.57-5.21-3.01-5.34-8-5.34-12.24-1.27-7.88-6.95c-1.61-1.4-2.71-3.35-2.71-5.76,0-5.04,4.66-8.01,9.02-8.01,1.82,0,3.68.51,5.21,1.48,1.02-1.23,4.15-3.26,4.15-3.26v2.54c-.76.08-2.16-.17-3.77.93,1.99,1.36,3.43,3.52,3.43,6.31,0,5-4.7,7.96-9.02,7.96-2.16,0-4.36-.72-6.06-2.03-2.33,3.43,1.74,4.36,6.52,4.36,5.12,0,9.45,2.37,9.45,7.71s-4.7,7.46-9.87,7.46c-6.06,0-9.36-3.64-9.36-7.88,0-3.6,3.77-5.93,3.77-5.93,0,0-3.35,2.41-3.35,5.97ZM361.16,625.88c3.85,0,6.82-3.05,6.82-7.58s-2.96-7.67-6.82-7.67-6.86,3.13-6.86,7.67,3.01,7.58,6.86,7.58Z"/><path class="cls-10" d="M384.03,625.92c-.08.25-.8,1.78-2.37,1.78-3.26,0-3.9-2.16-3.9-4.91v-12.28h-1.99v-.34h.93c1.82-.25,3.01-3.13,3.13-3.43v3.43h3.26v.34h-3.26v12.83c0,1.1.13,3.81,2.03,3.81,1.23,0,2.03-1.02,2.16-1.23ZM384.03,625.92s.04-.04.04-.04l-.04.04Z"/><path class="cls-10" d="M390.43,625.12v-17.62c0-.21.08-1.27-1.53-1.57l3.6-1.69v9.78c.64-.93,2.84-3.73,5.8-3.73,4.15,0,6.31,1.99,6.31,5.08v9.74s-.13,2.12,2.08,2.46h-6.23c2.2-.34,2.12-2.46,2.12-2.46v-9.7c0-2.88-1.74-4.7-4.53-4.7s-5.17,3.18-5.55,3.77v10.63s-.13,2.12,2.08,2.46h-6.23c2.2-.34,2.08-2.46,2.08-2.46Z"/><path class="cls-10" d="M424.91,625.12v-11.35c0-.21.08-1.27-1.52-1.57l3.6-1.69v14.61s-.13,2.12,2.08,2.46h-6.23c2.2-.34,2.08-2.46,2.08-2.46ZM424.15,607.67c0-.89.72-1.61,1.61-1.61s1.57.72,1.57,1.61-.72,1.57-1.57,1.57c-.89,0-1.61-.72-1.61-1.57Z"/><path class="cls-10" d="M444.82,623.3c0,3.6-3.39,4.41-6.1,4.41-3.01,0-5.29-1.14-5.29-1.14l-.42-3.05s2.67,3.85,5.72,3.85c1.99,0,4.45-.8,4.45-3.35,0-4.45-9.62-3.64-9.62-9.53,0-2.8,2.71-4.11,5.51-4.11,2.63,0,4.11.89,4.11.89l.38,2.92s-1.65-3.47-4.49-3.47c-2.12,0-3.85.89-3.85,3.43,0,3.94,9.62,3.6,9.62,9.15Z"/><path class="cls-10" d="M464.86,610.51h3.85v.34h-3.81v14.27s-.13,2.12,2.08,2.46h-6.23c2.2-.34,2.08-2.46,2.08-2.46v-14.27h-1.44v-.34h1.44v-1.19c.21-2.46,1.19-5.08,5.38-5.08,1.19,0,3.13.55,3.9,1.44l-1.19,2.88s0-3.98-2.71-3.98-3.26,2.25-3.3,4.74c0,0-.04,1.02-.04,1.19Z"/><path class="cls-10" d="M471.98,619.02c0-5.08,3.05-8.64,8.3-8.64,4.53,0,7.29,3.39,7.41,7.79v.38h-13.51c0,.13-.04.3-.04.47,0,4.49,2.46,8.22,6.86,8.22,3.94,0,6.23-3.52,6.23-3.52l.25.17s-2.37,3.85-6.48,3.85c-5.29,0-9.02-3.69-9.02-8.73ZM474.18,618.17h11.31c-.08-3.09-1.48-7.46-5.21-7.46-3.98,0-5.89,3.22-6.1,7.46Z"/><path class="cls-10" d="M500.87,610.72c-2.08,0-3.81,2.08-4.49,3.18v11.23s-.13,2.12,2.08,2.46h-6.23c2.2-.34,2.08-2.46,2.08-2.46v-11.35c0-.21.08-1.27-1.52-1.57l3.6-1.69v2.8c.63-1.14,2.5-3.01,4.91-3.01,3.39,0,4.91,1.31,5.34,3.47.55-1.14,2.46-3.47,5-3.47,4.15,0,5.59,1.99,5.59,5.08v9.74s-.13,2.12,2.08,2.46h-6.23c2.2-.34,2.12-2.46,2.12-2.46v-9.7c0-2.88-1.19-4.7-3.98-4.7-2.12,0-3.81,2.33-4.49,3.52.04.34.08.76.08,1.14v9.74s-.13,2.12,2.08,2.46h-6.23c2.2-.34,2.08-2.46,2.08-2.46v-9.7c0-2.88-1.06-4.7-3.85-4.7Z"/><path class="cls-10" d="M526.49,625.12v-11.35c0-.21.08-1.27-1.52-1.57l3.6-1.69v14.61s-.13,2.12,2.08,2.46h-6.23c2.2-.34,2.08-2.46,2.08-2.46ZM525.73,607.67c0-.89.72-1.61,1.61-1.61s1.57.72,1.57,1.61-.72,1.57-1.57,1.57c-.89,0-1.61-.72-1.61-1.57Z"/><path class="cls-10" d="M537.72,625.12v-11.35c0-.21.08-1.27-1.53-1.57l3.6-1.69v3.52c.64-.93,2.84-3.73,5.8-3.73,4.15,0,6.31,1.99,6.31,5.08v9.74s-.13,2.12,2.08,2.46h-6.23c2.2-.34,2.12-2.46,2.12-2.46v-9.7c0-2.88-1.74-4.7-4.53-4.7s-5.17,3.18-5.55,3.77v10.63s-.13,2.12,2.08,2.46h-6.23c2.2-.34,2.08-2.46,2.08-2.46Z"/><path class="cls-10" d="M561.49,625.12v-11.35c0-.21.08-1.27-1.53-1.57l3.6-1.69v14.61s-.13,2.12,2.08,2.46h-6.23c2.2-.34,2.08-2.46,2.08-2.46ZM560.72,607.67c0-.89.72-1.61,1.61-1.61s1.57.72,1.57,1.61-.72,1.57-1.57,1.57c-.89,0-1.61-.72-1.61-1.57Z"/><path class="cls-10" d="M572.71,625.12v-11.35c0-.21.08-1.27-1.52-1.57l3.6-1.69v3.52c.63-.93,2.84-3.73,5.8-3.73,4.15,0,6.31,1.99,6.31,5.08v9.74s-.13,2.12,2.08,2.46h-6.23c2.2-.34,2.12-2.46,2.12-2.46v-9.7c0-2.88-1.74-4.7-4.53-4.7s-5.17,3.18-5.55,3.77v10.63s-.13,2.12,2.08,2.46h-6.23c2.2-.34,2.08-2.46,2.08-2.46Z"/><path class="cls-10" d="M593.21,619.02c0-5.08,3.05-8.64,8.3-8.64,4.53,0,7.29,3.39,7.41,7.79v.38h-13.51c0,.13-.04.3-.04.47,0,4.49,2.46,8.22,6.86,8.22,3.94,0,6.23-3.52,6.23-3.52l.25.17s-2.37,3.85-6.48,3.85c-5.29,0-9.02-3.69-9.02-8.73ZM595.42,618.17h11.31c-.08-3.09-1.48-7.46-5.21-7.46-3.98,0-5.89,3.22-6.1,7.46Z"/><path class="cls-16" d="M448.15,392.84c-52.47,0-101.79-20.43-138.89-57.53-37.1-37.1-57.53-86.42-57.53-138.89s20.43-101.79,57.53-138.89C346.36,20.43,395.69,0,448.15,0s101.79,20.43,138.89,57.53c37.1,37.1,57.53,86.42,57.53,138.89,0,47.28-17.03,92.93-47.96,128.61,2.59.54,4.86,1.49,7.13,2.96,6.74,4.38,9.22,9.75,11.03,13.67.42.91.81,1.75,1.16,2.38.89,1.56,2.53,2.76,4.27,4.04,3.02,2.21,6.14,4.49,7.67,9.12.66.61,1.65,1.72,2.3,2.98,2.02,3.94-.24,6.78-2.25,9.28l-.16.2c-.55.69-1.11,1.34-1.64,1.94.88,4.82-2.53,8.83-5.75,10.8-.72.45-1.65.31-2.21-.33l-1.51-1.72c-1.02-1.17-25.04-28.47-37.28-37.78-36.08,32.41-82.67,50.26-131.21,50.26ZM448.15,1.98c-51.94,0-100.77,20.23-137.49,56.95-36.72,36.73-56.95,85.55-56.95,137.49s20.23,100.77,56.95,137.49c36.73,36.72,85.55,56.95,137.49,56.95,48.12,0,94.3-17.72,130.04-49.89.61-.55,1.54-.59,2.19-.1,12.36,9.31,36.71,37,37.74,38.17l1.38,1.57c2.19-1.41,5.45-4.71,4.65-8.75-.11-.54.04-1.08.41-1.49.53-.59,1.09-1.26,1.65-1.95l.16-.2c2.15-2.69,3.4-4.48,2.03-7.15-.53-1.03-1.37-1.96-1.98-2.57-.2-.2-.34-.42-.43-.69-1.33-4.03-4.07-6.03-6.96-8.15-1.83-1.34-3.73-2.72-4.82-4.66-.38-.67-.79-1.56-1.24-2.53-1.8-3.91-4.05-8.77-10.31-12.84-2.17-1.41-4.34-2.29-6.84-2.76h0c-.61-.12-1.1-.54-1.31-1.13-.2-.6-.08-1.23.33-1.7,30.79-35.36,47.75-80.69,47.75-127.63,0-51.94-20.23-100.77-56.95-137.49C548.92,22.2,500.09,1.98,448.15,1.98ZM448.15,386.66c-50.81,0-98.59-19.79-134.52-55.72-35.93-35.93-55.72-83.71-55.72-134.52s19.79-98.59,55.72-134.52C349.57,25.97,397.34,6.18,448.15,6.18c21.52,0,42.64,3.57,62.78,10.61.69.24,1.15.87,1.16,1.61,0,.74-.43,1.38-1.12,1.64-25.24,9.51-47.76,24.05-66.92,43.21-4.46,4.46-8.74,9.19-12.71,14.05-.31.37-.74.6-1.22.63-.48.04-.95-.13-1.3-.46-5.97-5.61-12.35-9.21-20.08-11.32-.8-.22-1.61-.4-2.41-.53l-1.06-.18v-.02c-25.17-4.47-40.03,2.48-48.08,9.17-5.26,4.37-9.28,10.04-11.61,16.42-2.21,6.04-2.88,12.59-1.95,18.94,1.2,8.13,4.84,15.32,10.54,20.79.53.51.68,1.27.39,1.93-.29.67-.95,1.08-1.67,1.04l-5.81-.32c-13.6-.76-32.23-1.79-46.27-.22-5.46.61-9.45,1.94-12.22,4.06-3.38,2.59-4.91,6.19-4.69,11,0,.21.03.43.05.66.34,3.51,2.06,6.66,4.86,8.87,2.99,2.36,6.96,3.5,11.53,3.29.37-.02.76-.04,1.16-.08.96-.07,6.4-.98,26.91-4.99.21-.04.42-.04.62,0,3.01.52,13.33,2.46,19.96,5.49.74.34,1.14,1.13.97,1.93-.15.72-.33,1.4-.55,2.03-.65,1.93-1.55,3.5-2.34,4.88-1.84,3.22-3.42,6-2.88,11.61.38,3.93,1.33,7.01,3.08,10.01,1.62,2.78,3.75,5.19,6.37,8.06,7.4,8.1,10.98,17.02,14.78,26.46l.08.19c.89,2.21,1.79,4.44,2.73,6.66.31.74.09,1.58-.55,2.06-8.64,6.46-37.43,28.31-45.23,38.22-2.99,3.8-5.17,7.52-6.48,11.06-1.35,3.63-1.75,7.02-1.2,10.08.62,3.45,2.43,6.37,5.38,8.69,1.74,1.37,3.89,2.54,6.39,3.46,12.06,4.47,53.85.86,76.3-1.08,6.64-.58,11.44-.99,13.07-.99.72,0,1.77.02,3.06.06.55.02,1.05.28,1.36.73,6.18,8.74,13.16,17.02,20.74,24.61,18.94,18.94,41.16,33.37,66.06,42.89h0c.69.26,1.12.91,1.11,1.64-.01.74-.47,1.37-1.17,1.61-19.87,6.83-40.7,10.3-61.9,10.3ZM448.15,8.16c-50.28,0-97.56,19.58-133.12,55.14-35.56,35.56-55.14,82.83-55.14,133.12s19.58,97.56,55.14,133.12c35.56,35.56,82.84,55.14,133.12,55.14,20.75,0,41.14-3.35,60.61-9.97-24.9-9.62-47.13-24.12-66.11-43.09-7.63-7.63-14.66-15.96-20.89-24.76-1.21-.03-2.19-.05-2.88-.05-1.54,0-6.55.43-12.89.98-22.61,1.95-64.68,5.59-77.16.96-2.7-1-5.03-2.27-6.93-3.76-3.34-2.63-5.39-5.96-6.1-9.89-.62-3.41-.18-7.16,1.29-11.12,1.38-3.74,3.67-7.64,6.78-11.6,7.91-10.04,36.57-31.82,45.45-38.46-.92-2.17-1.8-4.35-2.67-6.52l-.08-.19c-3.73-9.27-7.25-18.03-14.41-25.86-2.7-2.95-4.9-5.45-6.62-8.39-1.9-3.26-2.93-6.59-3.34-10.82-.6-6.24,1.21-9.42,3.13-12.78.78-1.37,1.59-2.79,2.19-4.54.17-.5.32-1.04.44-1.61-6.42-2.89-16.37-4.75-19.28-5.26-16.69,3.27-25.57,4.91-27.05,5.02-.42.03-.83.06-1.22.08-5.05.23-9.48-1.05-12.84-3.71-3.22-2.55-5.21-6.18-5.6-10.23-.03-.27-.05-.52-.05-.76-.25-5.42,1.59-9.68,5.46-12.65,3.06-2.35,7.38-3.8,13.2-4.46,14.21-1.59,32.93-.55,46.6.21l5.14.28c-5.66-5.65-9.44-13.24-10.65-21.47-.98-6.67-.27-13.55,2.05-19.9,2.45-6.71,6.67-12.68,12.21-17.27,8.49-7.04,24.19-14.39,50.75-9.4l.27.05c.14.02.27.05.4.08l.35.07h0c.52.11,1.04.24,1.55.38,7.99,2.18,14.6,5.89,20.77,11.66,3.83-4.8,8.14-9.56,12.62-14.05,19.2-19.2,41.73-33.81,66.98-43.42-19.73-6.81-40.41-10.27-61.48-10.27ZM509.4,374.95h0s0,0,0,0ZM520.72,372.18c-.18,0-.36-.03-.54-.09-27.35-8.94-52.62-24.48-73.08-44.93-5.98-5.98-11.59-12.41-16.68-19.13-.41-.54-.47-1.25-.15-1.85.31-.6.92-.95,1.61-.93,12.15.53,28.59,1.38,35.09,1.73l2.29.12.28-1.89c.03-.21.71-5.06-4.11-6.85-1.47-.55-2.87-.91-4.16-1.1-.35-.05-.65-.19-.91-.43-1.37-1.23-4.12-3.39-7.07-3.99-1.47-.3-2.8-.49-4.03-.67-2.4-.35-3.68-.54-4.28-.88-.24-.14-.38-.33-.53-.54-.1-.13-.23-.33-.45-.58-2.39-2.77-6.38-7.4-13.26-7.51-5.32-.08-8.11,2.11-10.61,4.04-.35.27-.69.53-1.01.77-.41.29-.9.4-1.39.29-.48-.11-.89-.4-1.13-.84-2.84-5.07-5.47-10.31-7.81-15.58-.28-.63-.17-1.33.28-1.84.45-.51,1.14-.71,1.79-.51,4.42,1.32,9.23,2.33,14.29,3,1.21.16,2.43.3,3.66.42.27.03.52.11.76.26,24.63,15.58,53.03,26.63,68.29,32.56,2.93,1.14,5.37,2.09,7.15,2.82,2.59,1.07,6.52,2.62,11.42,4.54,16.31,6.41,43.59,17.13,56.85,23.96h0c.52.27.85.75.92,1.33.07.58-.14,1.13-.58,1.51-15.59,13.69-33.17,24.67-52.25,32.64-.21.09-.44.13-.66.13ZM432.32,307.26c4.95,6.5,10.39,12.72,16.18,18.51,20.24,20.23,45.23,35.61,72.29,44.45,18.59-7.83,35.89-18.61,51.26-32.05-13.28-6.79-40.19-17.37-56.33-23.7-4.93-1.94-8.87-3.48-11.47-4.56-1.77-.73-4.19-1.67-7.11-2.81-15.32-5.96-43.84-17.05-68.64-32.74-1.14-.09-2.38-.23-3.62-.39-4.97-.66-9.7-1.64-14.08-2.92,2.22,4.97,4.69,9.9,7.36,14.67.24-.18.49-.37.74-.56,2.62-2.02,5.89-4.53,11.85-4.45,7.76.12,12.29,5.37,14.72,8.19.27.32.44.55.56.72.26.14,2.13.41,3.49.61,1.27.18,2.63.38,4.14.69,3.41.69,6.47,3.09,8,4.45,1.29.14,2.83.55,4.44,1.14,6.31,2.34,5.42,8.73,5.38,9l-.32,2.12c-.13.89-.92,1.52-1.8,1.47l-2.52-.13c-6.4-.34-22.45-1.17-34.54-1.7ZM572.37,338.33s0,0,0,0h0ZM618.1,371.87c-.47,0-.94-.2-1.28-.58-7.65-8.48-26.47-28.89-35.88-35.17-9.77-6.51-44.39-20.11-62.99-27.42-5.16-2.03-9.29-3.65-11.36-4.51-1.84-.76-4.28-1.71-7.23-2.86-6.9-2.68-16.29-6.34-26.86-10.99-.72-.32-1.14-1.09-1.01-1.87.13-.78.78-1.37,1.57-1.44,4.85-.38,9.5-1.04,13.99-1.68,7.05-1.01,14.32-2.05,22.32-1.93.25,0,.48.06.7.16,2.38,1.1,6.9,2.16,12.14,3.39,9.24,2.18,20.75,4.89,27.59,8.88,7.69,4.49,17.39,15.49,24.47,23.52,3.23,3.66,6.01,6.82,7.7,8.25,2.89,2.46,5.79,2.68,9.13,2.93,2.8.21,5.97.45,9.27,2.59,5.23,3.4,7.28,7.84,8.78,11.09.48,1.03.91,1.96,1.41,2.84,1.54,2.72,3.7,4.3,5.98,5.97,2.39,1.75,4.86,3.56,5.67,6.81l.18.74.64.48c1.85,1.95,1.41,2.9-.13,4.74-1.08,1.3-2.13,2.49-2.87,3.26-.29.32-.28.52-.24.72.15.77-.23,1.52-.93,1.87-.25.12-.51.18-.77.19ZM474.21,288.94c10.16,4.45,19.19,7.96,25.84,10.55,3,1.17,5.46,2.12,7.31,2.89,2.06.85,6.18,2.47,11.33,4.49,19.98,7.85,53.42,20.99,63.36,27.62,9.1,6.07,26.11,24.27,35.77,34.96.05-.6.3-1.16.76-1.67.76-.79,1.77-1.94,2.82-3.2.3-.36.87-1.04.88-1.24,0-.04-.07-.24-.67-.88l-.42-.34c-.42-.35-.61-.65-.7-1.02l-.19-.74c-.64-2.56-2.72-4.09-4.92-5.7-2.35-1.72-4.78-3.5-6.54-6.59-.54-.95-.98-1.92-1.46-2.94-1.5-3.24-3.33-7.22-8.08-10.31-2.88-1.87-5.65-2.08-8.34-2.28-3.54-.27-6.88-.52-10.27-3.39-1.8-1.53-4.49-4.58-7.9-8.45-7-7.94-16.57-18.8-23.99-23.13-6.59-3.84-17.93-6.52-27.05-8.66-5.31-1.25-9.89-2.33-12.47-3.5-7.85-.11-15,.92-21.96,1.91-4.22.6-8.58,1.23-13.13,1.62ZM509.25,285.39h0s0,0,0,0h0ZM587.05,325.61c-.23,0-.46-.05-.69-.14-.63-.27-1.18-.61-1.67-1.03-1.4-1.19-3.95-4.08-7.19-7.76-7.32-8.3-17.27-19.59-25.59-24.44-7.38-4.31-19.22-7.1-28.73-9.34-6.64-1.56-10.46-2.49-11.71-3.3-3.61-2.33-14.15-13.75-16.22-16.01l-.17-.22c-23.56-35.47-68.65-52.72-77.45-55.81-.42-.15-.74-.43-.95-.82-2.1-3.95-6.94-14.3-6.57-25.19.16-4.66.67-8.87,1.52-12.49.2-.84.98-1.39,1.82-1.33,8.64.69,32.6,2.42,68.41,3.59,7.07.53,14.47.59,21.63.65l2.51.02v-4.21c-7.87-.16-15.83-.37-23.67-.63-9.3-.7-16.35-2.12-22.27-4.46-1.81-.72-3.5-1.7-5.17-3-.59-.46-.81-1.21-.57-1.92.24-.7.87-1.16,1.62-1.17,5.42-.06,10.71-.44,16.17-1.18.19-.03.37-.02.56.02,23.52,4.59,34.78,3.52,47.81,2.29,6.62-.63,14.04-1.33,24.07-1.33,2.36,0,4.94.38,7.67.79,1.96.29,3.98.59,5.92.74.47.04.9.26,1.2.63.3.37.44.83.38,1.3-3.35,29.04-16.65,45.76-27.33,59.19-12.81,16.11-22.94,28.83-14.52,53.16h4.45c-8.46-23.12,1.17-35.23,13.36-50.55,11.84-14.89,25.27-31.76,28.4-62.87.06-.62.44-1.15,1.02-1.41,2.6-1.16,2.75-5.28,2.85-8.01v-.26c.14-3.66,1.34-5.08,2.3-6.23.56-.67.97-1.15,1.09-2.02.13-.86.85-1.48,1.71-1.48h.77c.96,0,1.73.77,1.73,1.73v6.83l23.49-10.66-23.49-10.66v6.85c0,.95-.77,1.73-1.73,1.73h-7.82s0,.01,0,.01c-.89,0-1.65-.7-1.72-1.59-2.69-32.53-16.46-49.83-28.61-65.11-10.96-13.77-20.42-25.67-14.88-45.82h0c.13-.49.46-.88.92-1.1.45-.22.96-.23,1.43-.03,22.28,9.57,42.31,23.15,59.52,40.36,35.93,35.93,55.72,83.7,55.72,134.52,0,47.77-17.78,93.45-50.07,128.62-.34.37-.79.56-1.27.56ZM413.52,169.73c-.79,3.45-1.27,7.45-1.43,11.89-.36,10.41,4.31,20.39,6.34,24.19,8.76,3.01,54.39,20.47,78.3,56.47,1.23,1.34,12.34,13.41,15.82,15.66,1.02.66,5.91,1.81,11.08,3.03,9.65,2.27,21.65,5.1,29.28,9.56,8.6,5.01,18.67,16.44,26.02,24.78,3.11,3.53,5.75,6.53,7.04,7.62.3.26.63.47,1.01.65,31.88-34.79,49.43-79.93,49.43-127.15,0-50.29-19.58-97.56-55.14-133.12-16.97-16.97-36.7-30.37-58.64-39.83-5.11,19.01,3.59,29.95,14.59,43.79,11.69,14.69,26.22,32.97,29.02,65.95h7.33v-7c0-.6.29-1.13.79-1.45.51-.33,1.11-.37,1.65-.12l24.34,11.05c.63.28,1.01.89,1.01,1.58s-.39,1.29-1.01,1.58l-24.34,11.05c-.55.25-1.15.2-1.65-.12-.5-.33-.79-.86-.79-1.45v-6.97h-.31c-.24,1.3-.88,2.06-1.5,2.8-.84,1.01-1.72,2.05-1.83,5.03v.26c-.12,3.18-.3,7.97-3.9,9.69-3.22,31.6-17.41,49.43-28.81,63.76-11.85,14.9-21.22,26.68-12.93,48.96.2.54.13,1.12-.2,1.59-.33.47-.85.74-1.42.74h-4.98c-.75,0-1.39-.46-1.63-1.16-8.87-25.46,2.09-39.24,14.79-55.2,11.04-13.88,23.55-29.6,26.88-57.93-1.93-.16-3.89-.45-5.8-.73-2.66-.39-5.17-.77-7.38-.77-9.93,0-17.31.7-23.81,1.31-13.26,1.26-24.65,2.34-48.45-2.31-5.22.72-10.36,1.11-15.61,1.19,1.33.97,2.68,1.72,4.1,2.29,5.73,2.26,12.59,3.64,21.61,4.32,7.9.25,15.94.47,23.88.63.93.02,1.69.8,1.69,1.73v4.7c0,.47-.18.9-.51,1.23-.33.33-.77.5-1.23.5l-2.76-.02c-7.19-.06-14.62-.12-21.68-.65-35.54-1.15-59.44-2.87-68.27-3.57ZM350.74,304.87c-8.54,0-15.61-.49-19.47-1.82-.55-.19-.95-.62-1.11-1.18-.15-.56-.03-1.14.35-1.58,5.14-6.02,20.44-19.84,51.21-18.1.17,0,.32.04.48.1,2.79.98,5.93,2.17,9.11,3.37,9.88,3.74,20.11,7.59,25.37,7.24,2.49-.17,4.11-1.42,5.99-2.88,1.87-1.44,4.22-3.23,8.01-3.17,4.96.08,8.32,3.97,10.13,6.06.83.96,1.42,1.65,2.12,2.04,1.31.73,3.36,1.03,5.73,1.37,1.27.19,2.63.38,3.78.62,1.26.26,2.65.98,4.13,2.16.59.47.81,1.26.54,1.97-.27.71-.95,1.14-1.7,1.12-11.59-.59-31.75-1.58-36.55-1.58-1.78,0-6.66.42-13.4,1.01-14.62,1.26-37.61,3.25-54.73,3.25ZM332.27,301.3c11.65,3.66,51.49.21,73-1.64,6.83-.59,11.74-1.02,13.61-1.02,4.51,0,21.79.83,35.83,1.54-.97-.69-1.88-1.13-2.65-1.28-1.12-.23-2.43-.42-3.65-.6-2.58-.37-4.8-.69-6.42-1.61-1.01-.56-1.73-1.4-2.65-2.47-1.72-1.99-4.59-5.32-8.67-5.38-3.14-.05-4.98,1.38-6.77,2.75-2.05,1.58-3.98,3.08-7.07,3.29-5.7.38-16.13-3.56-26.21-7.37-3.16-1.19-6.27-2.37-9.04-3.35-29.4-1.65-44.14,11.19-49.32,17.13ZM381.55,284.16h0s0,0,0,0h0ZM325.31,299.08c-.52,0-.99-.22-1.32-.61-1.11-1.32-1.83-2.82-2.13-4.47-.41-2.29-.07-4.94,1.02-7.89,1.17-3.15,3.13-6.49,5.84-9.93,7.12-9.04,32.57-28.55,43.18-36.51.41-.31.91-.42,1.41-.31.5.11.91.42,1.15.87,5.77,10.74,14.23,18.94,25.14,24.36.59.3.96.89.96,1.55,0,.66-.37,1.26-.97,1.55-7.32,3.59-14.57,8.19-17.35,10-.31.2-.66.3-1.03.28-32.83-1.61-49.1,13.77-54.58,20.47h0c-.33.4-.8.63-1.32.63h-.01ZM372.86,241.42c-8.51,6.39-35.48,26.96-42.58,35.98-2.58,3.28-4.45,6.44-5.54,9.4-.97,2.61-1.28,4.91-.93,6.85.22,1.21.72,2.32,1.5,3.31,5.85-7.05,22.69-22.61,56.01-20.96,2.61-1.75,9.7-6.25,16.96-9.86-10.98-5.57-19.53-13.88-25.42-24.72ZM409.02,287.38c-.16,0-.33-.02-.49-.07-4.6-1.36-10.26-3.5-15.73-5.56l-2.42-.91c-.62-.23-1.05-.79-1.11-1.46-.06-.66.26-1.29.83-1.64,4.37-2.64,8.38-4.85,11.95-6.57.43-.21.9-.23,1.35-.06.45.17.79.49.98.93,1.88,4.31,3.95,8.62,6.16,12.81.33.63.26,1.36-.19,1.9-.33.41-.83.63-1.34.63ZM391.56,279.16l1.94.73c5.21,1.97,10.59,4.01,15.02,5.35-2.09-3.98-4.06-8.08-5.85-12.18-3.33,1.61-7.06,3.67-11.11,6.1ZM464.9,283.18c-2.68,0-5.45-.12-8.35-.39h0c-.22-.02-.42-.08-.61-.17-4.22-2.1-8.29-4.23-12.08-6.34-.69-.38-1.03-1.17-.84-1.93.19-.76.87-1.3,1.65-1.31,13.46-.21,28.43-2.06,47.13-5.8.6-.12,1.2.08,1.61.52,1.73,1.86,5.13,5.49,8.47,8.81.49.49.64,1.19.4,1.83-.24.64-.81,1.07-1.5,1.12-4.93.36-9.67,1.04-14.25,1.69-6.83.98-13.8,1.97-21.62,1.97ZM456.78,280.82c11.13,1.04,20.42-.28,29.41-1.57,4.5-.64,9.1-1.3,13.9-1.67-3.18-3.18-6.34-6.55-8.04-8.38-18.32,3.67-33.11,5.51-46.42,5.8,3.52,1.94,7.27,3.89,11.15,5.82ZM442.17,268.88c-5.86,0-11.32-.35-16.48-1.03-24.25-3.22-40.89-14.49-49.44-33.47-1.46-3.24-2.73-6.41-3.97-9.47-3.95-9.81-7.67-19.08-15.57-27.72-2.45-2.69-4.44-4.93-5.84-7.33-1.44-2.47-2.22-5.03-2.54-8.31-.42-4.29.93-6.65,2.36-9.15.93-1.63,1.89-3.31,2.67-5.61.14-.41.26-.83.38-1.27.18-.69.75-1.19,1.46-1.28.7-.09,1.39.25,1.73.88,4.28,7.74,10.07,15.13,17.24,21.96,12.26,11.69,28.24,21.11,40.69,24l.12.03c1.97.65,47.79,15.99,73.36,50.02.36.48.45,1.1.23,1.66-.21.56-.69.96-1.28,1.07-17.57,3.37-32.3,5.03-45.13,5.03ZM355.5,166.6c-.08.28-.17.55-.26.82-.84,2.47-1.9,4.32-2.83,5.95-1.38,2.41-2.46,4.32-2.11,7.98.29,2.98.99,5.29,2.28,7.5,1.3,2.23,3.22,4.4,5.59,7,8.14,8.91,11.93,18.34,15.94,28.32,1.22,3.04,2.49,6.19,3.93,9.4,8.37,18.58,24.04,29.15,47.9,32.33,16.14,2.15,35.39.91,60.57-3.91-25.19-33.23-69.99-48.3-72.11-48.99-12.78-2.96-29.11-12.58-41.61-24.49-7.14-6.81-12.96-14.17-17.3-21.9ZM408.38,204.48c-.22,0-.44-.04-.66-.13-10.36-4.21-21.53-11.62-30.66-20.32-10.05-9.58-17.37-20.46-21.16-31.47h0c-.16-.48-.12-.98.13-1.42.26-.45.67-.74,1.16-.84l3.39-.68c.68-.13,1.35.13,1.75.7,4.35,6.25,17.19,21.66,42.39,29.98.73.24,1.2.91,1.19,1.68-.15,7.74,2.13,15.22,4.06,20.13.26.65.11,1.37-.39,1.86-.34.33-.77.5-1.21.5ZM357.87,152.19c3.71,10.62,10.82,21.13,20.56,30.41,8.8,8.39,19.52,15.54,29.5,19.7-1.94-5.03-4.1-12.44-3.99-20.17-25.47-8.46-38.58-24.06-43.12-30.53l-2.95.59ZM357.77,151.92s0,0,0,0c0,0,0,0,0,0h0ZM404.77,175.8c-.19,0-.39-.03-.58-.1-1.26-.45-2.48-.91-3.67-1.38-.49-.19-.85-.58-1.01-1.09-.16-.51-.08-1.03.21-1.47,1.14-1.72,2.93-4.3,5.3-6.83.55-.58,1.41-.71,2.1-.32.69.39,1.03,1.19.83,1.96-.63,2.33-1.12,4.92-1.47,7.71-.06.53-.35.98-.81,1.26-.28.17-.59.26-.9.26ZM401.54,172.59c.98.39,1.99.77,3.02,1.14.31-2.39.72-4.64,1.23-6.71-1.83,2.05-3.26,4.09-4.25,5.57ZM394.12,171.26c-.27,0-.53-.06-.79-.19-11.8-5.99-19.5-13.31-23.89-18.39-.43-.5-.54-1.18-.29-1.78.25-.61.81-1.02,1.46-1.07,1.48-.12,3.06-.33,4.68-.61.51-.09.91-.06,1.25.1l1.05.48-.14.2c.14.14.29.29.44.45l.68.72,1.04-.07c3.27-.21,4.49-.29,6.05-1.45,1.09-.81,1.87-1.9,3.31-3.87.63-.87,1.35-1.86,2.2-2.99.49-.65.86-1.33,1.09-2.02.24-.7.89-1.17,1.64-1.17l78.96-.11.15.99v-.99s10.6-.01,10.6-.01c1.55.04,4.09.18,7.79.45.9.06,1.59.79,1.61,1.69l.2,10.65c0,.5-.19.96-.56,1.3-.36.34-.84.5-1.34.45-5.54-.54-11.56-1.46-18.4-2.81l-.85-.02c-14.8,2.07-25.86,1.09-34.75.3-7.24-.64-12.96-1.15-17.55.26-14.08,2.97-21.18,14-24.21,18.72-.33.51-.88.8-1.45.8ZM371.26,151.75c4.29,4.9,11.65,11.77,22.77,17.45,3.23-5.02,10.64-16.29,25.19-19.35,4.94-1.52,10.83-1,18.28-.33,8.79.78,19.73,1.75,34.34-.29l.28-.02,1.2.06c6.65,1.31,12.52,2.22,17.91,2.75l-.19-10.14c-3.55-.25-5.99-.39-7.45-.42l-89.51.12c-.3.83-.75,1.63-1.33,2.4-.84,1.12-1.55,2.1-2.14,2.91-1.53,2.11-2.43,3.36-3.76,4.35-2.02,1.5-3.72,1.61-7.09,1.83l-1.16.08c-.54.04-1.02-.16-1.38-.54l-.76-.81c-.45-.47-.66-.64-.75-.69-1.58.31-3.05.51-4.44.64ZM378.66,151.26h0s0,0,0,0ZM450.95,165.88s-.06,0-.09,0c-16.16-.79-27.93-1.6-34.96-2.14-.6-.05-1.11-.38-1.39-.91-.28-.53-.28-1.14.02-1.66.32-.57.65-1.08.98-1.53,4.49-5.49,11.24-4.89,21.46-3.98,2.42.22,5,.45,7.8.63h0c.45.03.85.22,1.15.55,2.18,2.36,4.01,4.29,6.1,5.98.58.47.8,1.26.53,1.96-.26.68-.9,1.11-1.61,1.11ZM416.45,161.79c6.94.53,18.3,1.3,33.76,2.07-1.93-1.63-3.66-3.45-5.66-5.62-2.78-.18-5.35-.41-7.73-.62-9.96-.89-15.95-1.42-19.74,3.22-.2.27-.41.59-.62.95ZM299.27,156.89c-3.18,0-5.89-.82-7.89-2.4-1.89-1.49-3.05-3.61-3.28-5.97l-.03-.42c-.15-3.34.87-5.86,3.05-7.52,2.15-1.65,5.46-2.7,10.13-3.22,3.21-.36,6.86-.6,10.85-.72.54-.01,1.01.2,1.36.59.35.4.49.91.4,1.43-.54,3.12-.8,8.03,1.02,13.7.15.48.1.98-.16,1.41-.26.43-.67.72-1.16.82-7.38,1.41-11.4,2.13-12.3,2.2-.44.04-.77.07-1.11.08-.29.01-.58.02-.87.02ZM311.86,138.62c-3.82.12-7.31.35-10.39.7-4.31.48-7.3,1.41-9.15,2.83-1.65,1.27-2.39,3.17-2.27,5.82l.03.36c.18,1.81,1.08,3.45,2.54,4.6,1.8,1.42,4.38,2.1,7.44,1.96.31-.01.61-.03.91-.06.69-.06,3.19-.46,11.94-2.13-1.79-5.76-1.58-10.78-1.05-14.08ZM348.98,156.81c-.21,0-.42-.04-.63-.12-.78-.3-1.59-.59-2.41-.86-.75-.25-1.23-.96-1.18-1.75.05-.78.62-1.44,1.39-1.59l2.48-.49c.52-.1,1.02.02,1.43.35.41.34.64.81.64,1.33,0,.45,0,.92,0,1.41h0c0,.58-.28,1.09-.76,1.41-.29.2-.63.3-.96.3ZM347.45,154.26c.43.15.86.3,1.28.46,0-.24,0-.48,0-.72l-1.28.25ZM502.86,154.6c-1.22,0-2.48-.02-3.77-.06-.92-.03-1.65-.78-1.67-1.7l-.2-10.58c0-.49.18-.95.54-1.29.36-.34.84-.5,1.32-.47l8.06.63c12.17.96,25.96,2.04,33.11,2.27.94.03,1.67.79,1.68,1.72v5.39c.01.94-.75,1.72-1.68,1.73-8.04.16-14.18.74-20.12,1.31-5.67.54-11.08,1.05-17.27,1.05ZM499.39,152.56c7.6.24,13.61-.33,20.56-.99,5.64-.54,12.02-1.14,20.02-1.31v-4.9c-7.27-.24-20.92-1.32-32.98-2.26l-7.79-.61.19,10.07ZM558.64,153.86c-.07,0-.14,0-.21-.01l-10.78-1.28c-.87-.1-1.52-.84-1.52-1.71l-.02-7.11c0-.65.34-1.23.92-1.53,1.63-.87,3.52-1.96,4.6-2.59.27-.16.56-.24.87-.24h1.05s.36.99.36.99v-.99s.36,0,.36,0l.36.99v-.99s.36,0,.36,0l.36.99v-.99s2.15,0,2.15,0l.36.99v-.99s.92,0,.92,0c.94,0,1.7.74,1.73,1.68.04,1.31.06,2.65.06,4.01,0,2.39-.06,4.8-.19,7.16-.03.48-.24.92-.61,1.23-.32.27-.71.41-1.11.41ZM548.1,150.63l10.3,1.22c.11-2.23.17-4.52.17-6.79,0-1.26-.02-2.5-.05-3.71h-.68s-.36-.99-.36-.99v.99s-.36,0-.36,0l-.36-.99v.99s-.36,0-.36,0l-.36-.99v.99s-2.5,0-2.5,0l-.36-.99v.99s-.69,0-.69,0c-.95.59-2.79,1.66-4.42,2.53l.02,6.74ZM320.8,153.16c-.72,0-1.37-.44-1.62-1.15-2.18-6.03-1.7-11.03-.91-14.16.19-.77.88-1.31,1.67-1.31h.02c9.26.05,18.61.57,26.85,1.03,4.34.24,8.23.46,11.52.57.88.03,1.59.71,1.67,1.58l.33,4.09c.07.88-.52,1.67-1.38,1.84-7.09,1.41-24.09,4.8-37.82,7.46-.11.02-.23.03-.34.03ZM320.15,138.53c-.57,2.38-1.15,7,.82,12.61,13.55-2.63,30.21-5.95,37.38-7.38l-.3-3.65c-3.25-.11-7.09-.32-11.33-.56-8.18-.45-17.43-.97-26.58-1.03ZM380.82,146.81c-.4,0-.77-.13-1.09-.39-.4-.33-.8-.59-1.21-.81l-.14-.06c-1.18-.57-2.38-.72-3.8-.48-1.54.27-3.83.6-5.98.68-.86.03-1.68.03-2.42-.03-.86-.06-1.53-.73-1.6-1.58l-.41-5.05c-.07-.82.46-1.58,1.25-1.81l14.94-4.23c.26-.07.87-.25,3.68,1.18.91.46,2.2,1.23,3.2,2.28.78.82,1.17,1.55,1.18,2.23,0,.48-.18.97-.58,1.51-.94,1.25-1.66,2.24-2.25,3.06-1.25,1.73-1.87,2.58-2.4,2.97-.44.32-1.04.42-2.22.52-.05,0-.1,0-.15,0ZM379.03,143.67h0l.22.1c.6.29,1.16.66,1.73,1.12.7-.13.99-.19,1.08-.23.23-.18.97-1.19,1.9-2.48.62-.86,1.34-1.85,2.29-3.11.14-.19.18-.3.19-.32h0s-.08-.28-.63-.86c-.63-.66-1.58-1.33-2.67-1.88-1.29-.65-2.1-.94-2.39-1l-14.6,4.13.38,4.63c.62.03,1.3.03,2,0,2.04-.08,4.23-.4,5.72-.65,1.74-.3,3.31-.12,4.79.55ZM582.89,138.16h-1c-.95,0-1.73-.78-1.73-1.73v-.45c0-.6.29-1.13.8-1.45.5-.32,1.1-.37,1.65-.12l1,.46c.75.34,1.15,1.14.98,1.94-.17.8-.87,1.36-1.69,1.36ZM392.57,135.42c-.56,0-1.07-.26-1.4-.72-.37-.5-.46-1.08-.28-1.61.18-.54.59-.94,1.14-1.11.84-.26,1.65-.65,2.41-1.16,1.33-.9,2.36-2.16,3.25-3.96h0c.27-.55.8-.91,1.42-.96,4.9-.39,8.71-1.7,12.08-2.85,4.25-1.46,7.92-2.72,11.64-.42.66.41,1.43,1.69,3.63,5.56.81,1.43,1.7,2.98,2.66,4.55.33.54.35,1.19.04,1.75-.31.56-.87.89-1.51.89l-35.07.05h0ZM392.57,133.44h0,0ZM399.4,127.87c-1.02,2.03-2.28,3.54-3.85,4.6-.56.38-1.15.7-1.76.97l33.41-.05c-.89-1.46-1.7-2.89-2.46-4.22-1.21-2.13-2.58-4.53-3-4.9-2.88-1.78-5.83-.76-9.92.64-3.45,1.18-7.34,2.52-12.42,2.94ZM399.46,127.74s0,0,0,0c0,0,0,0,0,0h0ZM436.83,135.36c-.55,0-1.05-.25-1.38-.69-2.06-2.75-3.81-5.82-5.35-8.54-1.85-3.25-3.45-6.06-5.08-7.06-5.43-3.35-9.52-1.94-15.2,0-1.75.6-3.74,1.28-5.9,1.81-.81.2-1.62-.19-1.98-.95-.35-.75-.13-1.63.53-2.12.43-.32,1.02-.72,1.84-1.25.87-.56.62-1.52-.53-3.94-.33-.71-.67-1.42-.91-2.1-.17-.49-.12-1.01.14-1.46.26-.44.69-.74,1.21-.82,3.39-.56,6.25-1.46,9.03-2.33,5.71-1.8,10.63-3.35,16.89.7,3.06,1.97,5.79,5.92,8.95,10.48,3.52,5.08,7.51,10.84,12.85,15.18h0c.58.47.79,1.22.54,1.92-.25.7-.89,1.15-1.63,1.15l-14.02.02h0ZM450.7,133.81s0,0,0,0h0s0,0,0,0ZM436.83,133.38h0,0ZM418.44,115.08c2.41,0,4.89.62,7.62,2.3,2.07,1.27,3.7,4.14,5.76,7.77,1.5,2.63,3.19,5.6,5.14,8.23l13.2-.02c-5.29-4.46-9.22-10.13-12.7-15.15-2.92-4.21-5.67-8.19-8.4-9.95-5.49-3.54-9.77-2.19-15.2-.48-2.65.84-5.63,1.77-9.03,2.35.21.54.47,1.09.73,1.63.97,2.05,2.3,4.86-.18,6.46-.21.13-.4.26-.57.37,1.55-.43,2.98-.92,4.37-1.4,3.21-1.1,6.18-2.12,9.27-2.12ZM472.75,135.31c-15.94,0-23.85-11.42-30.21-20.6-3.43-4.95-6.38-9.22-10.14-11.64-7.91-5.1-13.41-3.37-20.37-1.18-2.17.68-4.62,1.45-7.29,1.98-.53.1-1.07-.04-1.47-.39-.41-.36-.62-.87-.59-1.41.19-3.02.23-5.75-1.2-8.53-.22-.43-.25-.92-.09-1.38.17-.46.5-.81.95-1l1.75-.75c3.96-1.72,7.88-3.41,11.99-3.97,3.97-.54,7.32-.34,10.56.64,4.19,1.26,8.17,3.96,12.14,8.24,1.68,2.08,3.6,4.44,5.71,6.88.71.83,1.7,1.99,2.68,3.15l2.09,2.46h0c5.49,6.4,11.14,12.4,19.48,15.97,4.55,1.94,11.01,3.36,19.21,4.22,6.9.73,13.58.9,18.05.92v-4.19c-4.36-.02-10.88-.19-17.63-.9-7.77-.82-13.82-2.13-17.99-3.91-3.7-1.58-7.22-3.94-10.77-7.22-.56-.51-.71-1.32-.39-2,.32-.68,1.04-1.08,1.79-.98,3.59.46,7.76.88,12.4,1.24,11.58.89,24.42,1.31,32.66,1.4l-.07-4.18c-8.1-.09-20.75-.51-32.28-1.4-10.2-.79-17.58-1.77-21.94-2.93-.35-.09-.64-.28-.87-.55l-.54-.63c-.81-.95-1.62-1.91-2.72-3.18-2.42-2.8-4.68-5.61-6.86-8.33-2.23-2.78-4.44-5.54-6.68-8.11-.56-.64-.57-1.57-.04-2.23,4.08-5.04,8.46-9.91,13.04-14.49,18.7-18.7,41.64-33.43,66.32-42.58.6-.22,1.24-.11,1.73.31.49.42.7,1.04.57,1.66-3.96,19.45,5.15,30.9,16.68,45.4,11.08,13.93,24.87,31.27,27.64,62.21.04.49-.12.96-.45,1.32-.14.15-.29.27-.47.36v.2l-86.2.12c-.06,0-.12,0-.17,0ZM422.24,97.76c3.42,0,7.03.95,11.23,3.65,4.09,2.64,7.3,7.27,10.69,12.17,6.44,9.29,13.82,19.84,28.76,19.74l85.12-.12c-2.77-30.18-15.74-46.49-27.19-60.89-11.3-14.21-21.07-26.49-17.16-46.59-24.26,9.06-46.79,23.57-65.19,41.97-4.48,4.48-8.77,9.24-12.77,14.17,2.22,2.55,4.4,5.27,6.51,7.9,2.26,2.82,4.51,5.62,6.91,8.39,1.11,1.28,1.92,2.24,2.73,3.2l.54.63c4.05,1.03,11.51,2.03,21.45,2.79,11.6.89,24.34,1.31,32.39,1.39.94.01,1.71.79,1.71,1.73v4.68c0,.47-.18.89-.51,1.23-.34.33-.74.48-1.24.5h0c-8.26-.09-21.26-.5-32.97-1.4-4.34-.34-8.28-.72-11.72-1.15,3.18,2.85,6.33,4.92,9.62,6.32,3.99,1.7,9.85,2.97,17.42,3.76,6.79.72,13.36.88,17.67.89.95,0,1.73.78,1.73,1.73v4.69c0,.47-.17.89-.51,1.22-.34.34-.7.51-1.23.51-4.51-.01-11.39-.19-18.5-.93-8.4-.88-15.05-2.35-19.78-4.37-8.76-3.74-14.83-10.23-20.28-16.59l-.69-.25.09-.46-1.41-1.66c-.98-1.16-1.96-2.31-2.67-3.13-2.13-2.46-4.07-4.84-5.68-6.84-3.72-4-7.4-6.52-11.25-7.68-2.96-.89-6.05-1.07-9.72-.57-3.85.52-7.64,2.16-11.3,3.75l-1.69.73c1.48,3.04,1.49,5.99,1.32,9,2.44-.5,4.63-1.2,6.76-1.87,3.7-1.17,7.15-2.25,10.81-2.25ZM506,107.91h0s0,0,0,0ZM362.7,131.69c-.32,0-.64-.09-.93-.27-7.54-4.82-12.64-12.86-13.99-22.07-.4-2.74-.47-5.54-.21-8.31.08-.79.68-1.43,1.47-1.55.79-.12,1.55.32,1.86,1.06.68,1.67,1.48,3.35,2.38,4.99,3.68,6.74,8.91,12.84,14.71,17.18.69.51.9,1.44.49,2.2-1.33,2.49-2.86,4.6-4.56,6.28-.34.33-.78.5-1.22.5ZM349.46,102.24c-.15,2.28-.05,4.57.28,6.82,1.26,8.57,5.97,16.06,12.93,20.58,1.46-1.47,2.79-3.31,3.96-5.47-5.96-4.49-11.31-10.76-15.09-17.68-.76-1.4-1.46-2.82-2.08-4.25ZM366.8,124.3s0,0,0,0h0s0,0,0,0ZM372.92,130.75c-.53,0-1.03-.24-1.37-.68-.43-.56-.48-1.32-.12-1.94.39-.65.77-1.34,1.14-2.07.25-.49.7-.82,1.24-.92.55-.1,1.08.06,1.49.44.48.45.98.89,1.5,1.32.5.42.72,1.05.59,1.68-.14.65-.6,1.14-1.23,1.31l-2.77.78c-.16.04-.32.07-.48.07ZM372.86,128.77s0,0,0,0h0ZM374.19,127.25c-.24.47-.49.92-.74,1.36l1.73-.49c-.34-.29-.66-.58-.99-.87ZM389.13,128.19c-1.31,0-2.81-.38-4.45-1.13-3.62-1.66-7.56-5-10.03-8.5l-.72-1.02-1.23.14c-.21.03-2.22.24-3.91-1.3-.7-.64-1.33-1.71-1.76-3.03-.54-1.66-.93-4.01.28-5.84.98-1.48,2.55-2.01,3.98-1.33,1.53.72,2.69,2.47,3.54,5.35,3.65-3.73,6.55-7.89,8.8-15.62.23-.8,1-1.32,1.84-1.24,3.15.33,6.31.04,9.69-.89.73-.2,1.5.09,1.91.73,1.74,2.7,1.55,5.41,1.36,8.29l-.05.65c-.15,2.13-.29,4.15.11,6.17.19.95.56,2.35,1.27,3.64.45.82.17,1.84-.64,2.32-2.32,1.36-2.71,2.53-3.75,5.67l-.08.23c-.75,2.25-1.59,4.79-3.2,5.88-.83.56-1.83.84-2.96.84ZM374.06,115.55c.56,0,1.08.27,1.41.73l.8,1.13c2.29,3.24,5.91,6.32,9.24,7.84,1.67.76,3.97,1.46,5.48.45,1.05-.71,1.81-3.01,2.43-4.86l.08-.23c1.05-3.16,1.64-4.93,4.42-6.63-.75-1.45-1.15-2.96-1.36-3.99-.46-2.28-.3-4.53-.15-6.7l.04-.64c.18-2.58.33-4.82-.95-6.93-3.48.93-6.76,1.23-10.03.92-2.07,7.03-4.84,11.85-9.54,16.57-.44.44-1.07.61-1.67.45-.6-.16-1.06-.61-1.23-1.21-.68-2.46-1.57-4.02-2.59-4.49-.71-.33-1.24.25-1.49.63-.81,1.23-.38,3.12-.05,4.13.32.97.77,1.78,1.21,2.18,1.05.95,2.29.8,2.35.8l1.39-.16c.07,0,.13-.01.2-.01ZM395.68,95.69s0,0,0,0c0,0,0,0,0,0h0ZM361.04,108.66c-.57,0-1.09-.27-1.42-.75-.97-1.42-1.87-2.89-2.68-4.36-3.5-6.41-5.19-12.74-4.5-16.92.04-.24.12-.45.25-.65,1.93-3.05,4.34-5.8,7.17-8.14.97-.8,2-1.57,3.08-2.29.62-.41,1.43-.38,2.01.07.59.46.82,1.23.58,1.93-.35,1.02-.66,2.11-.91,3.25-1.58,7.2-.61,15.67.83,21.21.16.63-.03,1.29-.52,1.72-.17.15-.33.31-.49.48-.8.88-1.38,1.95-1.73,3.19-.18.65-.72,1.13-1.39,1.24-.09.01-.19.02-.28.02ZM354.39,86.99c-.58,3.71,1.06,9.68,4.29,15.6.69,1.27,1.46,2.54,2.28,3.77.44-1.33,1.12-2.49,2.02-3.48.16-.18.34-.35.51-.52-.76-2.98-2.86-12.66-.81-21.98.21-.95.46-1.88.74-2.77-.8.56-1.57,1.14-2.3,1.75-2.66,2.2-4.92,4.77-6.73,7.64ZM363.6,102.26s0,0,0,0c0,0,0,0,0,0ZM375.15,103.36c-.36,0-.71-.11-1.01-.33-.34-.25-.71-.46-1.09-.64-.68-.32-1.43-.52-2.21-.6-.73-.08-1.32-.58-1.5-1.29-.6-2.36-2.42-10.67-.63-18.82,1.23-5.6,3.94-9.61,8.07-11.93h0c.15-.08.3-.14.46-.18,3.18-.71,6.58-1.15,10.11-1.3.72-.03,1.35.37,1.65,1.01.29.64.17,1.39-.32,1.91-.81.86-1.58,1.82-2.26,2.85-3.35,5.05-4.41,10.12-5.54,15.49-.91,4.3-1.84,8.76-4.22,12.95-.25.43-.65.73-1.14.84-.12.03-.25.04-.37.04ZM371.23,99.84c.94.11,1.84.37,2.68.76.41.19.81.42,1.18.67,2.13-3.87,3.02-8.07,3.87-12.14,1.12-5.32,2.27-10.82,5.83-16.18.63-.95,1.32-1.85,2.06-2.67-3.18.17-6.24.57-9.11,1.21-3.6,2.03-5.98,5.6-7.08,10.61-1.33,6.07-.59,13.11.57,17.74ZM387.84,90.58c-.27,0-.55,0-.82-.02-.52-.02-.98-.26-1.3-.67-.32-.41-.43-.92-.32-1.43.83-3.8,1.93-8.19,4.53-12.12,1.94-2.92,4.46-4.94,7.5-6.01,2.44-.86,5.1-1.07,7.92-.64l.16.03c.71.11,1.42.27,2.13.46,6.29,1.72,11.56,4.54,16.61,8.87.57.5.76,1.29.46,1.99-.3.7-1,1.12-1.76,1.04-2.32-.23-4.74-.17-7.43.2-4.66.63-8.86,2.45-12.92,4.21-4.65,2.01-9.43,4.08-14.76,4.08ZM387.4,88.6c5.09.11,9.62-1.83,14.4-3.91,4.2-1.82,8.52-3.69,13.46-4.36,2.54-.35,4.87-.44,7.11-.28-4.63-3.85-9.5-6.39-15.25-7.96-.64-.17-1.28-.31-1.92-.42l-.12-.02c-2.51-.38-4.86-.2-6.99.55-2.62.92-4.81,2.68-6.51,5.24-2.35,3.55-3.37,7.44-4.18,11.15Z"/></svg>